# Tiled2Unity generated file. Do not modify by hand.
# Wavefront file for 'FinalLevelPlatform2_mesh_0001.obj'

# Vertices (Count = 336)
v -9 -16 0
v -10 -16 0
v -10 -15 0
v -9 -15 0
v -10 -16 0
v -11 -16 0
v -11 -15 0
v -10 -15 0
v -11 -16 0
v -12 -16 0
v -12 -15 0
v -11 -15 0
v -12 -16 0
v -13 -16 0
v -13 -15 0
v -12 -15 0
v -13 -16 0
v -14 -16 0
v -14 -15 0
v -13 -15 0
v -14 -16 0
v -15 -16 0
v -15 -15 0
v -14 -15 0
v -15 -16 0
v -16 -16 0
v -16 -15 0
v -15 -15 0
v -16 -16 0
v -17 -16 0
v -17 -15 0
v -16 -15 0
v -17 -16 0
v -18 -16 0
v -18 -15 0
v -17 -15 0
v -18 -16 0
v -19 -16 0
v -19 -15 0
v -18 -15 0
v -19 -16 0
v -20 -16 0
v -20 -15 0
v -19 -15 0
v -20 -16 0
v -21 -16 0
v -21 -15 0
v -20 -15 0
v -9 -17 0
v -10 -17 0
v -10 -16 0
v -9 -16 0
v -10 -17 0
v -11 -17 0
v -11 -16 0
v -10 -16 0
v -11 -17 0
v -12 -17 0
v -12 -16 0
v -11 -16 0
v -12 -17 0
v -13 -17 0
v -13 -16 0
v -12 -16 0
v -13 -17 0
v -14 -17 0
v -14 -16 0
v -13 -16 0
v -14 -17 0
v -15 -17 0
v -15 -16 0
v -14 -16 0
v -15 -17 0
v -16 -17 0
v -16 -16 0
v -15 -16 0
v -16 -17 0
v -17 -17 0
v -17 -16 0
v -16 -16 0
v -17 -17 0
v -18 -17 0
v -18 -16 0
v -17 -16 0
v -18 -17 0
v -19 -17 0
v -19 -16 0
v -18 -16 0
v -19 -17 0
v -20 -17 0
v -20 -16 0
v -19 -16 0
v -20 -17 0
v -21 -17 0
v -21 -16 0
v -20 -16 0
v -9 -18 0
v -10 -18 0
v -10 -17 0
v -9 -17 0
v -10 -18 0
v -11 -18 0
v -11 -17 0
v -10 -17 0
v -11 -18 0
v -12 -18 0
v -12 -17 0
v -11 -17 0
v -12 -18 0
v -13 -18 0
v -13 -17 0
v -12 -17 0
v -13 -18 0
v -14 -18 0
v -14 -17 0
v -13 -17 0
v -14 -18 0
v -15 -18 0
v -15 -17 0
v -14 -17 0
v -15 -18 0
v -16 -18 0
v -16 -17 0
v -15 -17 0
v -16 -18 0
v -17 -18 0
v -17 -17 0
v -16 -17 0
v -17 -18 0
v -18 -18 0
v -18 -17 0
v -17 -17 0
v -18 -18 0
v -19 -18 0
v -19 -17 0
v -18 -17 0
v -19 -18 0
v -20 -18 0
v -20 -17 0
v -19 -17 0
v -20 -18 0
v -21 -18 0
v -21 -17 0
v -20 -17 0
v -9 -19 0
v -10 -19 0
v -10 -18 0
v -9 -18 0
v -10 -19 0
v -11 -19 0
v -11 -18 0
v -10 -18 0
v -11 -19 0
v -12 -19 0
v -12 -18 0
v -11 -18 0
v -12 -19 0
v -13 -19 0
v -13 -18 0
v -12 -18 0
v -13 -19 0
v -14 -19 0
v -14 -18 0
v -13 -18 0
v -14 -19 0
v -15 -19 0
v -15 -18 0
v -14 -18 0
v -15 -19 0
v -16 -19 0
v -16 -18 0
v -15 -18 0
v -16 -19 0
v -17 -19 0
v -17 -18 0
v -16 -18 0
v -17 -19 0
v -18 -19 0
v -18 -18 0
v -17 -18 0
v -18 -19 0
v -19 -19 0
v -19 -18 0
v -18 -18 0
v -19 -19 0
v -20 -19 0
v -20 -18 0
v -19 -18 0
v -20 -19 0
v -21 -19 0
v -21 -18 0
v -20 -18 0
v -9 -20 0
v -10 -20 0
v -10 -19 0
v -9 -19 0
v -10 -20 0
v -11 -20 0
v -11 -19 0
v -10 -19 0
v -11 -20 0
v -12 -20 0
v -12 -19 0
v -11 -19 0
v -12 -20 0
v -13 -20 0
v -13 -19 0
v -12 -19 0
v -13 -20 0
v -14 -20 0
v -14 -19 0
v -13 -19 0
v -14 -20 0
v -15 -20 0
v -15 -19 0
v -14 -19 0
v -15 -20 0
v -16 -20 0
v -16 -19 0
v -15 -19 0
v -16 -20 0
v -17 -20 0
v -17 -19 0
v -16 -19 0
v -17 -20 0
v -18 -20 0
v -18 -19 0
v -17 -19 0
v -18 -20 0
v -19 -20 0
v -19 -19 0
v -18 -19 0
v -19 -20 0
v -20 -20 0
v -20 -19 0
v -19 -19 0
v -20 -20 0
v -21 -20 0
v -21 -19 0
v -20 -19 0
v -9 -21 0
v -10 -21 0
v -10 -20 0
v -9 -20 0
v -10 -21 0
v -11 -21 0
v -11 -20 0
v -10 -20 0
v -11 -21 0
v -12 -21 0
v -12 -20 0
v -11 -20 0
v -12 -21 0
v -13 -21 0
v -13 -20 0
v -12 -20 0
v -13 -21 0
v -14 -21 0
v -14 -20 0
v -13 -20 0
v -14 -21 0
v -15 -21 0
v -15 -20 0
v -14 -20 0
v -15 -21 0
v -16 -21 0
v -16 -20 0
v -15 -20 0
v -16 -21 0
v -17 -21 0
v -17 -20 0
v -16 -20 0
v -17 -21 0
v -18 -21 0
v -18 -20 0
v -17 -20 0
v -18 -21 0
v -19 -21 0
v -19 -20 0
v -18 -20 0
v -19 -21 0
v -20 -21 0
v -20 -20 0
v -19 -20 0
v -20 -21 0
v -21 -21 0
v -21 -20 0
v -20 -20 0
v -9 -22 0
v -10 -22 0
v -10 -21 0
v -9 -21 0
v -10 -22 0
v -11 -22 0
v -11 -21 0
v -10 -21 0
v -11 -22 0
v -12 -22 0
v -12 -21 0
v -11 -21 0
v -12 -22 0
v -13 -22 0
v -13 -21 0
v -12 -21 0
v -13 -22 0
v -14 -22 0
v -14 -21 0
v -13 -21 0
v -14 -22 0
v -15 -22 0
v -15 -21 0
v -14 -21 0
v -15 -22 0
v -16 -22 0
v -16 -21 0
v -15 -21 0
v -16 -22 0
v -17 -22 0
v -17 -21 0
v -16 -21 0
v -17 -22 0
v -18 -22 0
v -18 -21 0
v -17 -21 0
v -18 -22 0
v -19 -22 0
v -19 -21 0
v -18 -21 0
v -19 -22 0
v -20 -22 0
v -20 -21 0
v -19 -21 0
v -20 -22 0
v -21 -22 0
v -21 -21 0
v -20 -21 0

# Texture cooridinates (Count = 34)
vt 0.8125 0.6
vt 0.828125 0.6
vt 0.828125 0.625
vt 0.8125 0.625
vt 0.84375 0.6
vt 0.84375 0.625
vt 0.859375 0.6
vt 0.859375 0.625
vt 0.875 0.6
vt 0.875 0.625
vt 0.890625 0.6
vt 0.890625 0.625
vt 0.921875 0.6
vt 0.90625 0.6
vt 0.90625 0.625
vt 0.921875 0.625
vt 0.515625 0.725
vt 0.53125 0.725
vt 0.53125 0.75
vt 0.515625 0.75
vt 0.5 0.575
vt 0.515625 0.575
vt 0.515625 0.6
vt 0.5 0.6
vt 0.640625 0.525
vt 0.65625 0.525
vt 0.65625 0.55
vt 0.640625 0.55
vt 0.671875 0.525
vt 0.671875 0.55
vt 0.625 0.525
vt 0.625 0.55
vt 0.515625 0.7
vt 0.53125 0.7

# Normal
vn 0 0 -1

# Mesh description
g FinalLevelPlatform2_mesh_0001

# Faces
f 1/1/1 2/2/1 3/3/1 4/4/1
f 5/2/1 6/5/1 7/6/1 8/3/1
f 9/5/1 10/7/1 11/8/1 12/6/1
f 13/7/1 14/9/1 15/10/1 16/8/1
f 17/9/1 18/11/1 19/12/1 20/10/1
f 21/13/1 22/14/1 23/15/1 24/16/1
f 25/14/1 26/11/1 27/12/1 28/15/1
f 29/11/1 30/9/1 31/10/1 32/12/1
f 33/9/1 34/7/1 35/8/1 36/10/1
f 37/7/1 38/5/1 39/6/1 40/8/1
f 41/5/1 42/2/1 43/3/1 44/6/1
f 45/2/1 46/1/1 47/4/1 48/3/1
f 49/17/1 50/18/1 51/19/1 52/20/1
f 53/21/1 54/22/1 55/23/1 56/24/1
f 57/25/1 58/26/1 59/27/1 60/28/1
f 61/26/1 62/29/1 63/30/1 64/27/1
f 65/31/1 66/25/1 67/28/1 68/32/1
f 69/25/1 70/26/1 71/27/1 72/28/1
f 73/26/1 74/29/1 75/30/1 76/27/1
f 77/21/1 78/22/1 79/23/1 80/24/1
f 81/31/1 82/25/1 83/28/1 84/32/1
f 85/25/1 86/26/1 87/27/1 88/28/1
f 89/26/1 90/29/1 91/30/1 92/27/1
f 93/17/1 94/18/1 95/19/1 96/20/1
f 97/17/1 98/18/1 99/19/1 100/20/1
f 101/31/1 102/25/1 103/28/1 104/32/1
f 105/25/1 106/26/1 107/27/1 108/28/1
f 109/21/1 110/22/1 111/23/1 112/24/1
f 113/31/1 114/25/1 115/28/1 116/32/1
f 117/25/1 118/26/1 119/27/1 120/28/1
f 121/26/1 122/29/1 123/30/1 124/27/1
f 125/31/1 126/25/1 127/28/1 128/32/1
f 129/31/1 130/25/1 131/28/1 132/32/1
f 133/25/1 134/26/1 135/27/1 136/28/1
f 137/21/1 138/22/1 139/23/1 140/24/1
f 141/17/1 142/18/1 143/19/1 144/20/1
f 145/17/1 146/18/1 147/19/1 148/20/1
f 149/31/1 150/25/1 151/28/1 152/32/1
f 153/25/1 154/26/1 155/27/1 156/28/1
f 157/26/1 158/29/1 159/30/1 160/27/1
f 161/31/1 162/25/1 163/28/1 164/32/1
f 165/25/1 166/26/1 167/27/1 168/28/1
f 169/21/1 170/22/1 171/23/1 172/24/1
f 173/31/1 174/25/1 175/28/1 176/32/1
f 177/31/1 178/25/1 179/28/1 180/32/1
f 181/25/1 182/26/1 183/27/1 184/28/1
f 185/26/1 186/29/1 187/30/1 188/27/1
f 189/17/1 190/18/1 191/19/1 192/20/1
f 193/17/1 194/18/1 195/19/1 196/20/1
f 197/31/1 198/25/1 199/28/1 200/32/1
f 201/21/1 202/22/1 203/23/1 204/24/1
f 205/26/1 206/29/1 207/30/1 208/27/1
f 209/31/1 210/25/1 211/28/1 212/32/1
f 213/25/1 214/26/1 215/27/1 216/28/1
f 217/26/1 218/29/1 219/30/1 220/27/1
f 221/31/1 222/25/1 223/28/1 224/32/1
f 225/31/1 226/25/1 227/28/1 228/32/1
f 229/21/1 230/22/1 231/23/1 232/24/1
f 233/26/1 234/29/1 235/30/1 236/27/1
f 237/17/1 238/18/1 239/19/1 240/20/1
f 241/33/1 242/34/1 243/18/1 244/17/1
f 245/31/1 246/25/1 247/28/1 248/32/1
f 249/25/1 250/26/1 251/27/1 252/28/1
f 253/26/1 254/29/1 255/30/1 256/27/1
f 257/31/1 258/25/1 259/28/1 260/32/1
f 261/25/1 262/26/1 263/27/1 264/28/1
f 265/26/1 266/29/1 267/30/1 268/27/1
f 269/31/1 270/25/1 271/28/1 272/32/1
f 273/31/1 274/25/1 275/28/1 276/32/1
f 277/25/1 278/26/1 279/27/1 280/28/1
f 281/26/1 282/29/1 283/30/1 284/27/1
f 285/33/1 286/34/1 287/18/1 288/17/1
f 289/4/1 290/3/1 291/2/1 292/1/1
f 293/3/1 294/6/1 295/5/1 296/2/1
f 297/6/1 298/8/1 299/7/1 300/5/1
f 301/8/1 302/10/1 303/9/1 304/7/1
f 305/10/1 306/12/1 307/11/1 308/9/1
f 309/12/1 310/15/1 311/14/1 312/11/1
f 313/15/1 314/16/1 315/13/1 316/14/1
f 317/12/1 318/10/1 319/9/1 320/11/1
f 321/10/1 322/8/1 323/7/1 324/9/1
f 325/8/1 326/6/1 327/5/1 328/7/1
f 329/6/1 330/3/1 331/2/1 332/5/1
f 333/3/1 334/4/1 335/1/1 336/2/1

