# Tiled2Unity generated file. Do not modify by hand.
# Wavefront file for 'Room1_mesh_0001.obj'

# Vertices (Count = 268)
v -17 -21.5 0
v -17.5 -21.5 0
v -17.5 -21 0
v -17 -21 0
v -17.5 -21.5 0
v -18 -21.5 0
v -18 -21 0
v -17.5 -21 0
v -18 -21.5 0
v -18.5 -21.5 0
v -18.5 -21 0
v -18 -21 0
v -18.5 -21.5 0
v -19 -21.5 0
v -19 -21 0
v -18.5 -21 0
v -19 -21.5 0
v -19.5 -21.5 0
v -19.5 -21 0
v -19 -21 0
v -19.5 -21.5 0
v -20 -21.5 0
v -20 -21 0
v -19.5 -21 0
v -20 -21.5 0
v -20.5 -21.5 0
v -20.5 -21 0
v -20 -21 0
v -20.5 -21.5 0
v -21 -21.5 0
v -21 -21 0
v -20.5 -21 0
v -21 -21.5 0
v -21.5 -21.5 0
v -21.5 -21 0
v -21 -21 0
v -21.5 -21.5 0
v -22 -21.5 0
v -22 -21 0
v -21.5 -21 0
v -22 -21.5 0
v -22.5 -21.5 0
v -22.5 -21 0
v -22 -21 0
v -22.5 -21.5 0
v -23 -21.5 0
v -23 -21 0
v -22.5 -21 0
v -23 -21.5 0
v -23.5 -21.5 0
v -23.5 -21 0
v -23 -21 0
v -23.5 -21.5 0
v -24 -21.5 0
v -24 -21 0
v -23.5 -21 0
v -24 -21.5 0
v -24.5 -21.5 0
v -24.5 -21 0
v -24 -21 0
v -24.5 -21.5 0
v -25 -21.5 0
v -25 -21 0
v -24.5 -21 0
v -25 -21.5 0
v -25.5 -21.5 0
v -25.5 -21 0
v -25 -21 0
v -25.5 -21.5 0
v -26 -21.5 0
v -26 -21 0
v -25.5 -21 0
v -26 -21.5 0
v -26.5 -21.5 0
v -26.5 -21 0
v -26 -21 0
v -26.5 -21.5 0
v -27 -21.5 0
v -27 -21 0
v -26.5 -21 0
v -27 -21.5 0
v -27.5 -21.5 0
v -27.5 -21 0
v -27 -21 0
v -17 -22 0
v -17.5 -22 0
v -17.5 -21.5 0
v -17 -21.5 0
v -27 -22 0
v -27.5 -22 0
v -27.5 -21.5 0
v -27 -21.5 0
v -17 -22.5 0
v -17.5 -22.5 0
v -17.5 -22 0
v -17 -22 0
v -27 -22.5 0
v -27.5 -22.5 0
v -27.5 -22 0
v -27 -22 0
v -17 -23 0
v -17.5 -23 0
v -17.5 -22.5 0
v -17 -22.5 0
v -27 -23 0
v -27.5 -23 0
v -27.5 -22.5 0
v -27 -22.5 0
v -17 -23.5 0
v -17.5 -23.5 0
v -17.5 -23 0
v -17 -23 0
v -27 -23.5 0
v -27.5 -23.5 0
v -27.5 -23 0
v -27 -23 0
v -17 -24 0
v -17.5 -24 0
v -17.5 -23.5 0
v -17 -23.5 0
v -25 -24 0
v -25.5 -24 0
v -25.5 -23.5 0
v -25 -23.5 0
v -25.5 -24 0
v -26 -24 0
v -26 -23.5 0
v -25.5 -23.5 0
v -26 -24 0
v -26.5 -24 0
v -26.5 -23.5 0
v -26 -23.5 0
v -26.5 -24 0
v -27 -24 0
v -27 -23.5 0
v -26.5 -23.5 0
v -27 -24 0
v -27.5 -24 0
v -27.5 -23.5 0
v -27 -23.5 0
v -17 -24.5 0
v -17.5 -24.5 0
v -17.5 -24 0
v -17 -24 0
v -27 -24.5 0
v -27.5 -24.5 0
v -27.5 -24 0
v -27 -24 0
v -17 -25 0
v -17.5 -25 0
v -17.5 -24.5 0
v -17 -24.5 0
v -27 -25 0
v -27.5 -25 0
v -27.5 -24.5 0
v -27 -24.5 0
v -17 -25.5 0
v -17.5 -25.5 0
v -17.5 -25 0
v -17 -25 0
v -17.5 -25.5 0
v -18 -25.5 0
v -18 -25 0
v -17.5 -25 0
v -18 -25.5 0
v -18.5 -25.5 0
v -18.5 -25 0
v -18 -25 0
v -18.5 -25.5 0
v -19 -25.5 0
v -19 -25 0
v -18.5 -25 0
v -19 -25.5 0
v -19.5 -25.5 0
v -19.5 -25 0
v -19 -25 0
v -19.5 -25.5 0
v -20 -25.5 0
v -20 -25 0
v -19.5 -25 0
v -27 -25.5 0
v -27.5 -25.5 0
v -27.5 -25 0
v -27 -25 0
v -27 -26 0
v -27.5 -26 0
v -27.5 -25.5 0
v -27 -25.5 0
v -27 -26.5 0
v -27.5 -26.5 0
v -27.5 -26 0
v -27 -26 0
v -27 -27 0
v -27.5 -27 0
v -27.5 -26.5 0
v -27 -26.5 0
v -27 -27.5 0
v -27.5 -27.5 0
v -27.5 -27 0
v -27 -27 0
v -19.5 -28 0
v -20 -28 0
v -20 -27.5 0
v -19.5 -27.5 0
v -20 -28 0
v -20.5 -28 0
v -20.5 -27.5 0
v -20 -27.5 0
v -20.5 -28 0
v -21 -28 0
v -21 -27.5 0
v -20.5 -27.5 0
v -21 -28 0
v -21.5 -28 0
v -21.5 -27.5 0
v -21 -27.5 0
v -21.5 -28 0
v -22 -28 0
v -22 -27.5 0
v -21.5 -27.5 0
v -22 -28 0
v -22.5 -28 0
v -22.5 -27.5 0
v -22 -27.5 0
v -22.5 -28 0
v -23 -28 0
v -23 -27.5 0
v -22.5 -27.5 0
v -23 -28 0
v -23.5 -28 0
v -23.5 -27.5 0
v -23 -27.5 0
v -27 -28 0
v -27.5 -28 0
v -27.5 -27.5 0
v -27 -27.5 0
v -19.5 -28.5 0
v -20 -28.5 0
v -20 -28 0
v -19.5 -28 0
v -20 -28.5 0
v -20.5 -28.5 0
v -20.5 -28 0
v -20 -28 0
v -20.5 -28.5 0
v -21 -28.5 0
v -21 -28 0
v -20.5 -28 0
v -21 -28.5 0
v -21.5 -28.5 0
v -21.5 -28 0
v -21 -28 0
v -21.5 -28.5 0
v -22 -28.5 0
v -22 -28 0
v -21.5 -28 0
v -22 -28.5 0
v -22.5 -28.5 0
v -22.5 -28 0
v -22 -28 0
v -22.5 -28.5 0
v -23 -28.5 0
v -23 -28 0
v -22.5 -28 0
v -23 -28.5 0
v -23.5 -28.5 0
v -23.5 -28 0
v -23 -28 0

# Texture cooridinates (Count = 52)
vt 0.5625 0.475
vt 0.578125 0.475
vt 0.578125 0.5
vt 0.5625 0.5
vt 0.53125 0.725
vt 0.546875 0.725
vt 0.546875 0.75
vt 0.53125 0.75
vt 0.578125 0.725
vt 0.59375 0.725
vt 0.59375 0.75
vt 0.578125 0.75
vt 0.609375 0.725
vt 0.609375 0.75
vt 0.625 0.725
vt 0.625 0.75
vt 0.640625 0.725
vt 0.640625 0.75
vt 0.65625 0.725
vt 0.65625 0.75
vt 0.671875 0.725
vt 0.671875 0.75
vt 0.6875 0.725
vt 0.6875 0.75
vt 0.59375 0.575
vt 0.609375 0.575
vt 0.609375 0.6
vt 0.59375 0.6
vt 0.578125 0.525
vt 0.5625 0.525
vt 0.59375 0.5
vt 0.59375 0.525
vt 0.609375 0.5
vt 0.609375 0.525
vt 0.625 0.5
vt 0.625 0.525
vt 0.640625 0.5
vt 0.640625 0.525
vt 0.65625 0.5
vt 0.65625 0.525
vt 0.671875 0.5
vt 0.671875 0.525
vt 0.6875 0.5
vt 0.6875 0.525
vt 0.546875 0.475
vt 0.546875 0.5
vt 0.59375 0.475
vt 0.609375 0.475
vt 0.625 0.475
vt 0.640625 0.475
vt 0.65625 0.475
vt 0.671875 0.475

# Normal
vn 0 0 -1

# Mesh description
g Room1_mesh_0001

# Faces
f 1/1/1 2/2/1 3/3/1 4/4/1
f 5/5/1 6/6/1 7/7/1 8/8/1
f 9/5/1 10/6/1 11/7/1 12/8/1
f 13/5/1 14/6/1 15/7/1 16/8/1
f 17/5/1 18/6/1 19/7/1 20/8/1
f 21/5/1 22/6/1 23/7/1 24/8/1
f 25/5/1 26/6/1 27/7/1 28/8/1
f 29/9/1 30/10/1 31/11/1 32/12/1
f 33/10/1 34/13/1 35/14/1 36/11/1
f 37/13/1 38/15/1 39/16/1 40/14/1
f 41/15/1 42/17/1 43/18/1 44/16/1
f 45/17/1 46/19/1 47/20/1 48/18/1
f 49/19/1 50/21/1 51/22/1 52/20/1
f 53/21/1 54/23/1 55/24/1 56/22/1
f 57/21/1 58/23/1 59/24/1 60/22/1
f 61/21/1 62/23/1 63/24/1 64/22/1
f 65/21/1 66/23/1 67/24/1 68/22/1
f 69/21/1 70/23/1 71/24/1 72/22/1
f 73/21/1 74/23/1 75/24/1 76/22/1
f 77/21/1 78/23/1 79/24/1 80/22/1
f 81/1/1 82/2/1 83/3/1 84/4/1
f 85/1/1 86/2/1 87/3/1 88/4/1
f 89/1/1 90/2/1 91/3/1 92/4/1
f 93/1/1 94/2/1 95/3/1 96/4/1
f 97/1/1 98/2/1 99/3/1 100/4/1
f 101/1/1 102/2/1 103/3/1 104/4/1
f 105/1/1 106/2/1 107/3/1 108/4/1
f 109/1/1 110/2/1 111/3/1 112/4/1
f 113/1/1 114/2/1 115/3/1 116/4/1
f 117/1/1 118/2/1 119/3/1 120/4/1
f 121/25/1 122/26/1 123/27/1 124/28/1
f 125/25/1 126/26/1 127/27/1 128/28/1
f 129/25/1 130/26/1 131/27/1 132/28/1
f 133/25/1 134/26/1 135/27/1 136/28/1
f 137/1/1 138/2/1 139/3/1 140/4/1
f 141/1/1 142/2/1 143/3/1 144/4/1
f 145/1/1 146/2/1 147/3/1 148/4/1
f 149/1/1 150/2/1 151/3/1 152/4/1
f 153/1/1 154/2/1 155/3/1 156/4/1
f 157/1/1 158/2/1 159/3/1 160/4/1
f 161/25/1 162/26/1 163/27/1 164/28/1
f 165/25/1 166/26/1 167/27/1 168/28/1
f 169/25/1 170/26/1 171/27/1 172/28/1
f 173/25/1 174/26/1 175/27/1 176/28/1
f 177/25/1 178/26/1 179/27/1 180/28/1
f 181/1/1 182/2/1 183/3/1 184/4/1
f 185/1/1 186/2/1 187/3/1 188/4/1
f 189/1/1 190/2/1 191/3/1 192/4/1
f 193/1/1 194/2/1 195/3/1 196/4/1
f 197/1/1 198/2/1 199/3/1 200/4/1
f 201/4/1 202/3/1 203/29/1 204/30/1
f 205/3/1 206/31/1 207/32/1 208/29/1
f 209/31/1 210/33/1 211/34/1 212/32/1
f 213/33/1 214/35/1 215/36/1 216/34/1
f 217/35/1 218/37/1 219/38/1 220/36/1
f 221/37/1 222/39/1 223/40/1 224/38/1
f 225/39/1 226/41/1 227/42/1 228/40/1
f 229/41/1 230/43/1 231/44/1 232/42/1
f 233/1/1 234/2/1 235/3/1 236/4/1
f 237/45/1 238/1/1 239/4/1 240/46/1
f 241/2/1 242/47/1 243/31/1 244/3/1
f 245/47/1 246/48/1 247/33/1 248/31/1
f 249/48/1 250/49/1 251/35/1 252/33/1
f 253/49/1 254/50/1 255/37/1 256/35/1
f 257/50/1 258/51/1 259/39/1 260/37/1
f 261/51/1 262/52/1 263/41/1 264/39/1
f 265/45/1 266/1/1 267/4/1 268/46/1

