# Tiled2Unity generated file. Do not modify by hand.
# Wavefront file for 'tunnel_mesh_0001.obj'

# Vertices (Count = 192)
v -19 -25.5 0
v -19.5 -25.5 0
v -19.5 -25 0
v -19 -25 0
v -19.5 -25.5 0
v -20 -25.5 0
v -20 -25 0
v -19.5 -25 0
v -20 -25.5 0
v -20.5 -25.5 0
v -20.5 -25 0
v -20 -25 0
v -20.5 -25.5 0
v -21 -25.5 0
v -21 -25 0
v -20.5 -25 0
v -21 -25.5 0
v -21.5 -25.5 0
v -21.5 -25 0
v -21 -25 0
v -21.5 -25.5 0
v -22 -25.5 0
v -22 -25 0
v -21.5 -25 0
v -22 -25.5 0
v -22.5 -25.5 0
v -22.5 -25 0
v -22 -25 0
v -22.5 -25.5 0
v -23 -25.5 0
v -23 -25 0
v -22.5 -25 0
v -19 -26 0
v -19.5 -26 0
v -19.5 -25.5 0
v -19 -25.5 0
v -19.5 -26 0
v -20 -26 0
v -20 -25.5 0
v -19.5 -25.5 0
v -20 -26 0
v -20.5 -26 0
v -20.5 -25.5 0
v -20 -25.5 0
v -20.5 -26 0
v -21 -26 0
v -21 -25.5 0
v -20.5 -25.5 0
v -21 -26 0
v -21.5 -26 0
v -21.5 -25.5 0
v -21 -25.5 0
v -21.5 -26 0
v -22 -26 0
v -22 -25.5 0
v -21.5 -25.5 0
v -22 -26 0
v -22.5 -26 0
v -22.5 -25.5 0
v -22 -25.5 0
v -22.5 -26 0
v -23 -26 0
v -23 -25.5 0
v -22.5 -25.5 0
v -19 -26.5 0
v -19.5 -26.5 0
v -19.5 -26 0
v -19 -26 0
v -19.5 -26.5 0
v -20 -26.5 0
v -20 -26 0
v -19.5 -26 0
v -20 -26.5 0
v -20.5 -26.5 0
v -20.5 -26 0
v -20 -26 0
v -20.5 -26.5 0
v -21 -26.5 0
v -21 -26 0
v -20.5 -26 0
v -21 -26.5 0
v -21.5 -26.5 0
v -21.5 -26 0
v -21 -26 0
v -21.5 -26.5 0
v -22 -26.5 0
v -22 -26 0
v -21.5 -26 0
v -22 -26.5 0
v -22.5 -26.5 0
v -22.5 -26 0
v -22 -26 0
v -22.5 -26.5 0
v -23 -26.5 0
v -23 -26 0
v -22.5 -26 0
v -19 -27 0
v -19.5 -27 0
v -19.5 -26.5 0
v -19 -26.5 0
v -19.5 -27 0
v -20 -27 0
v -20 -26.5 0
v -19.5 -26.5 0
v -20 -27 0
v -20.5 -27 0
v -20.5 -26.5 0
v -20 -26.5 0
v -20.5 -27 0
v -21 -27 0
v -21 -26.5 0
v -20.5 -26.5 0
v -21 -27 0
v -21.5 -27 0
v -21.5 -26.5 0
v -21 -26.5 0
v -21.5 -27 0
v -22 -27 0
v -22 -26.5 0
v -21.5 -26.5 0
v -22 -27 0
v -22.5 -27 0
v -22.5 -26.5 0
v -22 -26.5 0
v -22.5 -27 0
v -23 -27 0
v -23 -26.5 0
v -22.5 -26.5 0
v -19 -27.5 0
v -19.5 -27.5 0
v -19.5 -27 0
v -19 -27 0
v -19.5 -27.5 0
v -20 -27.5 0
v -20 -27 0
v -19.5 -27 0
v -20 -27.5 0
v -20.5 -27.5 0
v -20.5 -27 0
v -20 -27 0
v -20.5 -27.5 0
v -21 -27.5 0
v -21 -27 0
v -20.5 -27 0
v -21 -27.5 0
v -21.5 -27.5 0
v -21.5 -27 0
v -21 -27 0
v -21.5 -27.5 0
v -22 -27.5 0
v -22 -27 0
v -21.5 -27 0
v -22 -27.5 0
v -22.5 -27.5 0
v -22.5 -27 0
v -22 -27 0
v -22.5 -27.5 0
v -23 -27.5 0
v -23 -27 0
v -22.5 -27 0
v -19 -28 0
v -19.5 -28 0
v -19.5 -27.5 0
v -19 -27.5 0
v -19.5 -28 0
v -20 -28 0
v -20 -27.5 0
v -19.5 -27.5 0
v -20 -28 0
v -20.5 -28 0
v -20.5 -27.5 0
v -20 -27.5 0
v -20.5 -28 0
v -21 -28 0
v -21 -27.5 0
v -20.5 -27.5 0
v -21 -28 0
v -21.5 -28 0
v -21.5 -27.5 0
v -21 -27.5 0
v -21.5 -28 0
v -22 -28 0
v -22 -27.5 0
v -21.5 -27.5 0
v -22 -28 0
v -22.5 -28 0
v -22.5 -27.5 0
v -22 -27.5 0
v -22.5 -28 0
v -23 -28 0
v -23 -27.5 0
v -22.5 -27.5 0

# Texture cooridinates (Count = 55)
vt 0.5625 0.5
vt 0.578125 0.5
vt 0.578125 0.525
vt 0.5625 0.525
vt 0.59375 0.5
vt 0.59375 0.525
vt 0.609375 0.5
vt 0.609375 0.525
vt 0.625 0.5
vt 0.625 0.525
vt 0.640625 0.5
vt 0.640625 0.525
vt 0.65625 0.5
vt 0.65625 0.525
vt 0.671875 0.5
vt 0.671875 0.525
vt 0.6875 0.5
vt 0.6875 0.525
vt 0.5625 0.475
vt 0.578125 0.475
vt 0.59375 0.475
vt 0.609375 0.475
vt 0.625 0.475
vt 0.640625 0.475
vt 0.65625 0.475
vt 0.671875 0.475
vt 0.6875 0.475
vt 0.578125 0.45
vt 0.59375 0.45
vt 0.609375 0.45
vt 0.625 0.45
vt 0.640625 0.45
vt 0.65625 0.45
vt 0.671875 0.45
vt 0.6875 0.45
vt 0.578125 0.425
vt 0.59375 0.425
vt 0.609375 0.425
vt 0.625 0.425
vt 0.640625 0.425
vt 0.65625 0.425
vt 0.671875 0.425
vt 0.6875 0.425
vt 0.578125 0.4
vt 0.59375 0.4
vt 0.609375 0.4
vt 0.625 0.4
vt 0.640625 0.4
vt 0.65625 0.4
vt 0.671875 0.4
vt 0.6875 0.4
vt 0.578125 0.575
vt 0.59375 0.575
vt 0.59375 0.6
vt 0.578125 0.6

# Normal
vn 0 0 -1

# Mesh description
g tunnel_mesh_0001

# Faces
f 1/1/1 2/2/1 3/3/1 4/4/1
f 5/2/1 6/5/1 7/6/1 8/3/1
f 9/5/1 10/7/1 11/8/1 12/6/1
f 13/7/1 14/9/1 15/10/1 16/8/1
f 17/9/1 18/11/1 19/12/1 20/10/1
f 21/11/1 22/13/1 23/14/1 24/12/1
f 25/13/1 26/15/1 27/16/1 28/14/1
f 29/15/1 30/17/1 31/18/1 32/16/1
f 33/19/1 34/20/1 35/2/1 36/1/1
f 37/20/1 38/21/1 39/5/1 40/2/1
f 41/21/1 42/22/1 43/7/1 44/5/1
f 45/22/1 46/23/1 47/9/1 48/7/1
f 49/23/1 50/24/1 51/11/1 52/9/1
f 53/24/1 54/25/1 55/13/1 56/11/1
f 57/25/1 58/26/1 59/15/1 60/13/1
f 61/26/1 62/27/1 63/17/1 64/15/1
f 65/19/1 66/20/1 67/2/1 68/1/1
f 69/28/1 70/29/1 71/21/1 72/20/1
f 73/29/1 74/30/1 75/22/1 76/21/1
f 77/30/1 78/31/1 79/23/1 80/22/1
f 81/31/1 82/32/1 83/24/1 84/23/1
f 85/32/1 86/33/1 87/25/1 88/24/1
f 89/33/1 90/34/1 91/26/1 92/25/1
f 93/34/1 94/35/1 95/27/1 96/26/1
f 97/19/1 98/20/1 99/2/1 100/1/1
f 101/36/1 102/37/1 103/29/1 104/28/1
f 105/37/1 106/38/1 107/30/1 108/29/1
f 109/38/1 110/39/1 111/31/1 112/30/1
f 113/37/1 114/38/1 115/30/1 116/29/1
f 117/40/1 118/41/1 119/33/1 120/32/1
f 121/41/1 122/42/1 123/34/1 124/33/1
f 125/42/1 126/43/1 127/35/1 128/34/1
f 129/19/1 130/20/1 131/2/1 132/1/1
f 133/44/1 134/45/1 135/37/1 136/36/1
f 137/45/1 138/46/1 139/38/1 140/37/1
f 141/46/1 142/47/1 143/39/1 144/38/1
f 145/47/1 146/48/1 147/40/1 148/39/1
f 149/48/1 150/49/1 151/41/1 152/40/1
f 153/49/1 154/50/1 155/42/1 156/41/1
f 157/50/1 158/51/1 159/43/1 160/42/1
f 161/52/1 162/53/1 163/54/1 164/55/1
f 165/52/1 166/53/1 167/54/1 168/55/1
f 169/52/1 170/53/1 171/54/1 172/55/1
f 173/52/1 174/53/1 175/54/1 176/55/1
f 177/52/1 178/53/1 179/54/1 180/55/1
f 181/52/1 182/53/1 183/54/1 184/55/1
f 185/52/1 186/53/1 187/54/1 188/55/1
f 189/52/1 190/53/1 191/54/1 192/55/1

