# Tiled2Unity generated file. Do not modify by hand.
# Wavefront file for 'TestTileMap_mesh_0001.obj'

# Vertices (Count = 660)
v -1 -23 0
v -1.5 -23 0
v -1.5 -22.5 0
v -1 -22.5 0
v -1.5 -23 0
v -2 -23 0
v -2 -22.5 0
v -1.5 -22.5 0
v -2 -23 0
v -2.5 -23 0
v -2.5 -22.5 0
v -2 -22.5 0
v -2.5 -23 0
v -3 -23 0
v -3 -22.5 0
v -2.5 -22.5 0
v -3 -23 0
v -3.5 -23 0
v -3.5 -22.5 0
v -3 -22.5 0
v -3.5 -23 0
v -4 -23 0
v -4 -22.5 0
v -3.5 -22.5 0
v -4 -23 0
v -4.5 -23 0
v -4.5 -22.5 0
v -4 -22.5 0
v -4.5 -23 0
v -5 -23 0
v -5 -22.5 0
v -4.5 -22.5 0
v -5 -23 0
v -5.5 -23 0
v -5.5 -22.5 0
v -5 -22.5 0
v -5.5 -23 0
v -6 -23 0
v -6 -22.5 0
v -5.5 -22.5 0
v -6 -23 0
v -6.5 -23 0
v -6.5 -22.5 0
v -6 -22.5 0
v -6.5 -23 0
v -7 -23 0
v -7 -22.5 0
v -6.5 -22.5 0
v -7 -23 0
v -7.5 -23 0
v -7.5 -22.5 0
v -7 -22.5 0
v -7.5 -23 0
v -8 -23 0
v -8 -22.5 0
v -7.5 -22.5 0
v -8 -23 0
v -8.5 -23 0
v -8.5 -22.5 0
v -8 -22.5 0
v -8.5 -23 0
v -9 -23 0
v -9 -22.5 0
v -8.5 -22.5 0
v -9 -23 0
v -9.5 -23 0
v -9.5 -22.5 0
v -9 -22.5 0
v -9.5 -23 0
v -10 -23 0
v -10 -22.5 0
v -9.5 -22.5 0
v -1 -23.5 0
v -1.5 -23.5 0
v -1.5 -23 0
v -1 -23 0
v -1.5 -23.5 0
v -2 -23.5 0
v -2 -23 0
v -1.5 -23 0
v -2 -23.5 0
v -2.5 -23.5 0
v -2.5 -23 0
v -2 -23 0
v -2.5 -23.5 0
v -3 -23.5 0
v -3 -23 0
v -2.5 -23 0
v -3 -23.5 0
v -3.5 -23.5 0
v -3.5 -23 0
v -3 -23 0
v -3.5 -23.5 0
v -4 -23.5 0
v -4 -23 0
v -3.5 -23 0
v -4 -23.5 0
v -4.5 -23.5 0
v -4.5 -23 0
v -4 -23 0
v -4.5 -23.5 0
v -5 -23.5 0
v -5 -23 0
v -4.5 -23 0
v -5 -23.5 0
v -5.5 -23.5 0
v -5.5 -23 0
v -5 -23 0
v -5.5 -23.5 0
v -6 -23.5 0
v -6 -23 0
v -5.5 -23 0
v -6 -23.5 0
v -6.5 -23.5 0
v -6.5 -23 0
v -6 -23 0
v -6.5 -23.5 0
v -7 -23.5 0
v -7 -23 0
v -6.5 -23 0
v -7 -23.5 0
v -7.5 -23.5 0
v -7.5 -23 0
v -7 -23 0
v -7.5 -23.5 0
v -8 -23.5 0
v -8 -23 0
v -7.5 -23 0
v -8 -23.5 0
v -8.5 -23.5 0
v -8.5 -23 0
v -8 -23 0
v -8.5 -23.5 0
v -9 -23.5 0
v -9 -23 0
v -8.5 -23 0
v -9 -23.5 0
v -9.5 -23.5 0
v -9.5 -23 0
v -9 -23 0
v -9.5 -23.5 0
v -10 -23.5 0
v -10 -23 0
v -9.5 -23 0
v -1 -24 0
v -1.5 -24 0
v -1.5 -23.5 0
v -1 -23.5 0
v -1.5 -24 0
v -2 -24 0
v -2 -23.5 0
v -1.5 -23.5 0
v -2 -24 0
v -2.5 -24 0
v -2.5 -23.5 0
v -2 -23.5 0
v -2.5 -24 0
v -3 -24 0
v -3 -23.5 0
v -2.5 -23.5 0
v -3 -24 0
v -3.5 -24 0
v -3.5 -23.5 0
v -3 -23.5 0
v -3.5 -24 0
v -4 -24 0
v -4 -23.5 0
v -3.5 -23.5 0
v -4 -24 0
v -4.5 -24 0
v -4.5 -23.5 0
v -4 -23.5 0
v -4.5 -24 0
v -5 -24 0
v -5 -23.5 0
v -4.5 -23.5 0
v -5 -24 0
v -5.5 -24 0
v -5.5 -23.5 0
v -5 -23.5 0
v -5.5 -24 0
v -6 -24 0
v -6 -23.5 0
v -5.5 -23.5 0
v -6 -24 0
v -6.5 -24 0
v -6.5 -23.5 0
v -6 -23.5 0
v -6.5 -24 0
v -7 -24 0
v -7 -23.5 0
v -6.5 -23.5 0
v -7 -24 0
v -7.5 -24 0
v -7.5 -23.5 0
v -7 -23.5 0
v -7.5 -24 0
v -8 -24 0
v -8 -23.5 0
v -7.5 -23.5 0
v -8 -24 0
v -8.5 -24 0
v -8.5 -23.5 0
v -8 -23.5 0
v -8.5 -24 0
v -9 -24 0
v -9 -23.5 0
v -8.5 -23.5 0
v -9 -24 0
v -9.5 -24 0
v -9.5 -23.5 0
v -9 -23.5 0
v -9.5 -24 0
v -10 -24 0
v -10 -23.5 0
v -9.5 -23.5 0
v -1 -24.5 0
v -1.5 -24.5 0
v -1.5 -24 0
v -1 -24 0
v -1.5 -24.5 0
v -2 -24.5 0
v -2 -24 0
v -1.5 -24 0
v -2 -24.5 0
v -2.5 -24.5 0
v -2.5 -24 0
v -2 -24 0
v -2.5 -24.5 0
v -3 -24.5 0
v -3 -24 0
v -2.5 -24 0
v -3 -24.5 0
v -3.5 -24.5 0
v -3.5 -24 0
v -3 -24 0
v -3.5 -24.5 0
v -4 -24.5 0
v -4 -24 0
v -3.5 -24 0
v -4 -24.5 0
v -4.5 -24.5 0
v -4.5 -24 0
v -4 -24 0
v -4.5 -24.5 0
v -5 -24.5 0
v -5 -24 0
v -4.5 -24 0
v -5 -24.5 0
v -5.5 -24.5 0
v -5.5 -24 0
v -5 -24 0
v -5.5 -24.5 0
v -6 -24.5 0
v -6 -24 0
v -5.5 -24 0
v -6 -24.5 0
v -6.5 -24.5 0
v -6.5 -24 0
v -6 -24 0
v -6.5 -24.5 0
v -7 -24.5 0
v -7 -24 0
v -6.5 -24 0
v -7 -24.5 0
v -7.5 -24.5 0
v -7.5 -24 0
v -7 -24 0
v -7.5 -24.5 0
v -8 -24.5 0
v -8 -24 0
v -7.5 -24 0
v -8 -24.5 0
v -8.5 -24.5 0
v -8.5 -24 0
v -8 -24 0
v -8.5 -24.5 0
v -9 -24.5 0
v -9 -24 0
v -8.5 -24 0
v -9 -24.5 0
v -9.5 -24.5 0
v -9.5 -24 0
v -9 -24 0
v -9.5 -24.5 0
v -10 -24.5 0
v -10 -24 0
v -9.5 -24 0
v -1 -25 0
v -1.5 -25 0
v -1.5 -24.5 0
v -1 -24.5 0
v -1.5 -25 0
v -2 -25 0
v -2 -24.5 0
v -1.5 -24.5 0
v -2 -25 0
v -2.5 -25 0
v -2.5 -24.5 0
v -2 -24.5 0
v -2.5 -25 0
v -3 -25 0
v -3 -24.5 0
v -2.5 -24.5 0
v -3 -25 0
v -3.5 -25 0
v -3.5 -24.5 0
v -3 -24.5 0
v -3.5 -25 0
v -4 -25 0
v -4 -24.5 0
v -3.5 -24.5 0
v -4 -25 0
v -4.5 -25 0
v -4.5 -24.5 0
v -4 -24.5 0
v -4.5 -25 0
v -5 -25 0
v -5 -24.5 0
v -4.5 -24.5 0
v -5 -25 0
v -5.5 -25 0
v -5.5 -24.5 0
v -5 -24.5 0
v -5.5 -25 0
v -6 -25 0
v -6 -24.5 0
v -5.5 -24.5 0
v -6 -25 0
v -6.5 -25 0
v -6.5 -24.5 0
v -6 -24.5 0
v -6.5 -25 0
v -7 -25 0
v -7 -24.5 0
v -6.5 -24.5 0
v -7 -25 0
v -7.5 -25 0
v -7.5 -24.5 0
v -7 -24.5 0
v -7.5 -25 0
v -8 -25 0
v -8 -24.5 0
v -7.5 -24.5 0
v -8 -25 0
v -8.5 -25 0
v -8.5 -24.5 0
v -8 -24.5 0
v -8.5 -25 0
v -9 -25 0
v -9 -24.5 0
v -8.5 -24.5 0
v -9 -25 0
v -9.5 -25 0
v -9.5 -24.5 0
v -9 -24.5 0
v -9.5 -25 0
v -10 -25 0
v -10 -24.5 0
v -9.5 -24.5 0
v -8 -25.5 0
v -8.5 -25.5 0
v -8.5 -25 0
v -8 -25 0
v -8.5 -25.5 0
v -9 -25.5 0
v -9 -25 0
v -8.5 -25 0
v -9 -25.5 0
v -9.5 -25.5 0
v -9.5 -25 0
v -9 -25 0
v -9.5 -25.5 0
v -10 -25.5 0
v -10 -25 0
v -9.5 -25 0
v -8 -26 0
v -8.5 -26 0
v -8.5 -25.5 0
v -8 -25.5 0
v -8.5 -26 0
v -9 -26 0
v -9 -25.5 0
v -8.5 -25.5 0
v -9 -26 0
v -9.5 -26 0
v -9.5 -25.5 0
v -9 -25.5 0
v -9.5 -26 0
v -10 -26 0
v -10 -25.5 0
v -9.5 -25.5 0
v -8 -26.5 0
v -8.5 -26.5 0
v -8.5 -26 0
v -8 -26 0
v -8.5 -26.5 0
v -9 -26.5 0
v -9 -26 0
v -8.5 -26 0
v -9 -26.5 0
v -9.5 -26.5 0
v -9.5 -26 0
v -9 -26 0
v -9.5 -26.5 0
v -10 -26.5 0
v -10 -26 0
v -9.5 -26 0
v -8 -27 0
v -8.5 -27 0
v -8.5 -26.5 0
v -8 -26.5 0
v -8.5 -27 0
v -9 -27 0
v -9 -26.5 0
v -8.5 -26.5 0
v -9 -27 0
v -9.5 -27 0
v -9.5 -26.5 0
v -9 -26.5 0
v -9.5 -27 0
v -10 -27 0
v -10 -26.5 0
v -9.5 -26.5 0
v -8 -27.5 0
v -8.5 -27.5 0
v -8.5 -27 0
v -8 -27 0
v -8.5 -27.5 0
v -9 -27.5 0
v -9 -27 0
v -8.5 -27 0
v -9 -27.5 0
v -9.5 -27.5 0
v -9.5 -27 0
v -9 -27 0
v -9.5 -27.5 0
v -10 -27.5 0
v -10 -27 0
v -9.5 -27 0
v -8 -28 0
v -8.5 -28 0
v -8.5 -27.5 0
v -8 -27.5 0
v -8.5 -28 0
v -9 -28 0
v -9 -27.5 0
v -8.5 -27.5 0
v -9 -28 0
v -9.5 -28 0
v -9.5 -27.5 0
v -9 -27.5 0
v -9.5 -28 0
v -10 -28 0
v -10 -27.5 0
v -9.5 -27.5 0
v -8 -28.5 0
v -8.5 -28.5 0
v -8.5 -28 0
v -8 -28 0
v -8.5 -28.5 0
v -9 -28.5 0
v -9 -28 0
v -8.5 -28 0
v -9 -28.5 0
v -9.5 -28.5 0
v -9.5 -28 0
v -9 -28 0
v -9.5 -28.5 0
v -10 -28.5 0
v -10 -28 0
v -9.5 -28 0
v -8 -29 0
v -8.5 -29 0
v -8.5 -28.5 0
v -8 -28.5 0
v -8.5 -29 0
v -9 -29 0
v -9 -28.5 0
v -8.5 -28.5 0
v -9 -29 0
v -9.5 -29 0
v -9.5 -28.5 0
v -9 -28.5 0
v -9.5 -29 0
v -10 -29 0
v -10 -28.5 0
v -9.5 -28.5 0
v -8 -29.5 0
v -8.5 -29.5 0
v -8.5 -29 0
v -8 -29 0
v -8.5 -29.5 0
v -9 -29.5 0
v -9 -29 0
v -8.5 -29 0
v -9 -29.5 0
v -9.5 -29.5 0
v -9.5 -29 0
v -9 -29 0
v -9.5 -29.5 0
v -10 -29.5 0
v -10 -29 0
v -9.5 -29 0
v -3.5 -30 0
v -4 -30 0
v -4 -29.5 0
v -3.5 -29.5 0
v -4 -30 0
v -4.5 -30 0
v -4.5 -29.5 0
v -4 -29.5 0
v -4.5 -30 0
v -5 -30 0
v -5 -29.5 0
v -4.5 -29.5 0
v -5 -30 0
v -5.5 -30 0
v -5.5 -29.5 0
v -5 -29.5 0
v -5.5 -30 0
v -6 -30 0
v -6 -29.5 0
v -5.5 -29.5 0
v -6 -30 0
v -6.5 -30 0
v -6.5 -29.5 0
v -6 -29.5 0
v -6.5 -30 0
v -7 -30 0
v -7 -29.5 0
v -6.5 -29.5 0
v -7 -30 0
v -7.5 -30 0
v -7.5 -29.5 0
v -7 -29.5 0
v -7.5 -30 0
v -8 -30 0
v -8 -29.5 0
v -7.5 -29.5 0
v -8 -30 0
v -8.5 -30 0
v -8.5 -29.5 0
v -8 -29.5 0
v -8.5 -30 0
v -9 -30 0
v -9 -29.5 0
v -8.5 -29.5 0
v -9 -30 0
v -9.5 -30 0
v -9.5 -29.5 0
v -9 -29.5 0
v -9.5 -30 0
v -10 -30 0
v -10 -29.5 0
v -9.5 -29.5 0
v -3.5 -30.5 0
v -4 -30.5 0
v -4 -30 0
v -3.5 -30 0
v -4 -30.5 0
v -4.5 -30.5 0
v -4.5 -30 0
v -4 -30 0
v -4.5 -30.5 0
v -5 -30.5 0
v -5 -30 0
v -4.5 -30 0
v -5 -30.5 0
v -5.5 -30.5 0
v -5.5 -30 0
v -5 -30 0
v -5.5 -30.5 0
v -6 -30.5 0
v -6 -30 0
v -5.5 -30 0
v -6 -30.5 0
v -6.5 -30.5 0
v -6.5 -30 0
v -6 -30 0
v -6.5 -30.5 0
v -7 -30.5 0
v -7 -30 0
v -6.5 -30 0
v -7 -30.5 0
v -7.5 -30.5 0
v -7.5 -30 0
v -7 -30 0
v -7.5 -30.5 0
v -8 -30.5 0
v -8 -30 0
v -7.5 -30 0
v -8 -30.5 0
v -8.5 -30.5 0
v -8.5 -30 0
v -8 -30 0
v -8.5 -30.5 0
v -9 -30.5 0
v -9 -30 0
v -8.5 -30 0
v -9 -30.5 0
v -9.5 -30.5 0
v -9.5 -30 0
v -9 -30 0
v -9.5 -30.5 0
v -10 -30.5 0
v -10 -30 0
v -9.5 -30 0
v -3.5 -31 0
v -4 -31 0
v -4 -30.5 0
v -3.5 -30.5 0
v -4 -31 0
v -4.5 -31 0
v -4.5 -30.5 0
v -4 -30.5 0
v -4.5 -31 0
v -5 -31 0
v -5 -30.5 0
v -4.5 -30.5 0
v -5 -31 0
v -5.5 -31 0
v -5.5 -30.5 0
v -5 -30.5 0
v -5.5 -31 0
v -6 -31 0
v -6 -30.5 0
v -5.5 -30.5 0
v -6 -31 0
v -6.5 -31 0
v -6.5 -30.5 0
v -6 -30.5 0
v -6.5 -31 0
v -7 -31 0
v -7 -30.5 0
v -6.5 -30.5 0
v -7 -31 0
v -7.5 -31 0
v -7.5 -30.5 0
v -7 -30.5 0
v -7.5 -31 0
v -8 -31 0
v -8 -30.5 0
v -7.5 -30.5 0
v -8 -31 0
v -8.5 -31 0
v -8.5 -30.5 0
v -8 -30.5 0
v -8.5 -31 0
v -9 -31 0
v -9 -30.5 0
v -8.5 -30.5 0
v -9 -31 0
v -9.5 -31 0
v -9.5 -30.5 0
v -9 -30.5 0
v -9.5 -31 0
v -10 -31 0
v -10 -30.5 0
v -9.5 -30.5 0

# Texture cooridinates (Count = 50)
vt 0.34375 0.575
vt 0.359375 0.575
vt 0.359375 0.6
vt 0.34375 0.6
vt 0.375 0.575
vt 0.375 0.6
vt 0.390625 0.575
vt 0.390625 0.6
vt 0.34375 0.55
vt 0.359375 0.55
vt 0.359375 0.725
vt 0.375 0.725
vt 0.375 0.75
vt 0.359375 0.75
vt 0.4375 0.7
vt 0.453125 0.7
vt 0.453125 0.725
vt 0.4375 0.725
vt 0.390625 0.7
vt 0.40625 0.7
vt 0.40625 0.725
vt 0.390625 0.725
vt 0.46875 0.7
vt 0.46875 0.725
vt 0.4375 0.55
vt 0.453125 0.55
vt 0.453125 0.575
vt 0.4375 0.575
vt 0.421875 0.7
vt 0.421875 0.725
vt 0.4375 0.75
vt 0.421875 0.75
vt 0.375 0.55
vt 0.390625 0.55
vt 0.359375 0.7
vt 0.375 0.7
vt 0.484375 0.675
vt 0.5 0.675
vt 0.5 0.7
vt 0.484375 0.7
vt 0.484375 0.55
vt 0.5 0.55
vt 0.5 0.575
vt 0.484375 0.575
vt 0.34375 0.525
vt 0.359375 0.525
vt 0.375 0.525
vt 0.5 0.6
vt 0.484375 0.6
vt 0.390625 0.525

# Normal
vn 0 0 -1

# Mesh description
g TestTileMap_mesh_0001

# Faces
f 1/1/1 2/2/1 3/3/1 4/4/1
f 5/2/1 6/5/1 7/6/1 8/3/1
f 9/2/1 10/5/1 11/6/1 12/3/1
f 13/2/1 14/5/1 15/6/1 16/3/1
f 17/2/1 18/5/1 19/6/1 20/3/1
f 21/2/1 22/5/1 23/6/1 24/3/1
f 25/2/1 26/5/1 27/6/1 28/3/1
f 29/2/1 30/5/1 31/6/1 32/3/1
f 33/2/1 34/5/1 35/6/1 36/3/1
f 37/2/1 38/5/1 39/6/1 40/3/1
f 41/2/1 42/5/1 43/6/1 44/3/1
f 45/2/1 46/5/1 47/6/1 48/3/1
f 49/2/1 50/5/1 51/6/1 52/3/1
f 53/2/1 54/5/1 55/6/1 56/3/1
f 57/2/1 58/5/1 59/6/1 60/3/1
f 61/2/1 62/5/1 63/6/1 64/3/1
f 65/2/1 66/5/1 67/6/1 68/3/1
f 69/5/1 70/7/1 71/8/1 72/6/1
f 73/9/1 74/10/1 75/2/1 76/1/1
f 77/11/1 78/12/1 79/13/1 80/14/1
f 81/15/1 82/16/1 83/17/1 84/18/1
f 85/19/1 86/20/1 87/21/1 88/22/1
f 89/16/1 90/23/1 91/24/1 92/17/1
f 93/25/1 94/26/1 95/27/1 96/28/1
f 97/19/1 98/20/1 99/21/1 100/22/1
f 101/19/1 102/20/1 103/21/1 104/22/1
f 105/16/1 106/23/1 107/24/1 108/17/1
f 109/20/1 110/29/1 111/30/1 112/21/1
f 113/25/1 114/26/1 115/27/1 116/28/1
f 117/30/1 118/18/1 119/31/1 120/32/1
f 121/29/1 122/15/1 123/18/1 124/30/1
f 125/29/1 126/15/1 127/18/1 128/30/1
f 129/16/1 130/23/1 131/24/1 132/17/1
f 133/15/1 134/16/1 135/17/1 136/18/1
f 137/15/1 138/16/1 139/17/1 140/18/1
f 141/33/1 142/34/1 143/7/1 144/5/1
f 145/9/1 146/10/1 147/2/1 148/1/1
f 149/19/1 150/20/1 151/21/1 152/22/1
f 153/25/1 154/26/1 155/27/1 156/28/1
f 157/19/1 158/20/1 159/21/1 160/22/1
f 161/35/1 162/36/1 163/12/1 164/11/1
f 165/35/1 166/36/1 167/12/1 168/11/1
f 169/16/1 170/23/1 171/24/1 172/17/1
f 173/16/1 174/23/1 175/24/1 176/17/1
f 177/15/1 178/16/1 179/17/1 180/18/1
f 181/15/1 182/16/1 183/17/1 184/18/1
f 185/15/1 186/16/1 187/17/1 188/18/1
f 189/37/1 190/38/1 191/39/1 192/40/1
f 193/16/1 194/23/1 195/24/1 196/17/1
f 197/41/1 198/42/1 199/43/1 200/44/1
f 201/41/1 202/42/1 203/43/1 204/44/1
f 205/41/1 206/42/1 207/43/1 208/44/1
f 209/41/1 210/42/1 211/43/1 212/44/1
f 213/33/1 214/34/1 215/7/1 216/5/1
f 217/9/1 218/10/1 219/2/1 220/1/1
f 221/11/1 222/12/1 223/13/1 224/14/1
f 225/15/1 226/16/1 227/17/1 228/18/1
f 229/16/1 230/23/1 231/24/1 232/17/1
f 233/19/1 234/20/1 235/21/1 236/22/1
f 237/25/1 238/26/1 239/27/1 240/28/1
f 241/25/1 242/26/1 243/27/1 244/28/1
f 245/25/1 246/26/1 247/27/1 248/28/1
f 249/25/1 250/26/1 251/27/1 252/28/1
f 253/15/1 254/16/1 255/17/1 256/18/1
f 257/15/1 258/16/1 259/17/1 260/18/1
f 261/16/1 262/23/1 263/24/1 264/17/1
f 265/41/1 266/42/1 267/43/1 268/44/1
f 269/41/1 270/42/1 271/43/1 272/44/1
f 273/41/1 274/42/1 275/43/1 276/44/1
f 277/16/1 278/23/1 279/24/1 280/17/1
f 281/37/1 282/38/1 283/39/1 284/40/1
f 285/33/1 286/34/1 287/7/1 288/5/1
f 289/45/1 290/46/1 291/10/1 292/9/1
f 293/46/1 294/47/1 295/33/1 296/10/1
f 297/46/1 298/47/1 299/33/1 300/10/1
f 301/46/1 302/47/1 303/33/1 304/10/1
f 305/46/1 306/47/1 307/33/1 308/10/1
f 309/46/1 310/47/1 311/33/1 312/10/1
f 313/46/1 314/47/1 315/33/1 316/10/1
f 317/46/1 318/47/1 319/33/1 320/10/1
f 321/46/1 322/47/1 323/33/1 324/10/1
f 325/46/1 326/47/1 327/33/1 328/10/1
f 329/46/1 330/47/1 331/33/1 332/10/1
f 333/46/1 334/47/1 335/33/1 336/10/1
f 337/46/1 338/47/1 339/33/1 340/10/1
f 341/46/1 342/47/1 343/33/1 344/10/1
f 345/5/1 346/7/1 347/8/1 348/6/1
f 349/16/1 350/23/1 351/24/1 352/17/1
f 353/19/1 354/20/1 355/21/1 356/22/1
f 357/33/1 358/34/1 359/7/1 360/5/1
f 361/9/1 362/10/1 363/2/1 364/1/1
f 365/44/1 366/43/1 367/48/1 368/49/1
f 369/37/1 370/38/1 371/39/1 372/40/1
f 373/33/1 374/34/1 375/7/1 376/5/1
f 377/9/1 378/10/1 379/2/1 380/1/1
f 381/37/1 382/38/1 383/39/1 384/40/1
f 385/16/1 386/23/1 387/24/1 388/17/1
f 389/33/1 390/34/1 391/7/1 392/5/1
f 393/9/1 394/10/1 395/2/1 396/1/1
f 397/15/1 398/16/1 399/17/1 400/18/1
f 401/37/1 402/38/1 403/39/1 404/40/1
f 405/33/1 406/34/1 407/7/1 408/5/1
f 409/9/1 410/10/1 411/2/1 412/1/1
f 413/15/1 414/16/1 415/17/1 416/18/1
f 417/16/1 418/23/1 419/24/1 420/17/1
f 421/33/1 422/34/1 423/7/1 424/5/1
f 425/9/1 426/10/1 427/2/1 428/1/1
f 429/41/1 430/42/1 431/43/1 432/44/1
f 433/41/1 434/42/1 435/43/1 436/44/1
f 437/33/1 438/34/1 439/7/1 440/5/1
f 441/9/1 442/10/1 443/2/1 444/1/1
f 445/15/1 446/16/1 447/17/1 448/18/1
f 449/19/1 450/20/1 451/21/1 452/22/1
f 453/33/1 454/34/1 455/7/1 456/5/1
f 457/9/1 458/10/1 459/2/1 460/1/1
f 461/44/1 462/43/1 463/48/1 464/49/1
f 465/15/1 466/16/1 467/17/1 468/18/1
f 469/33/1 470/34/1 471/7/1 472/5/1
f 473/9/1 474/10/1 475/2/1 476/1/1
f 477/44/1 478/43/1 479/48/1 480/49/1
f 481/15/1 482/16/1 483/17/1 484/18/1
f 485/33/1 486/34/1 487/7/1 488/5/1
f 489/9/1 490/10/1 491/2/1 492/1/1
f 493/44/1 494/43/1 495/48/1 496/49/1
f 497/44/1 498/43/1 499/48/1 500/49/1
f 501/33/1 502/34/1 503/7/1 504/5/1
f 505/1/1 506/2/1 507/3/1 508/4/1
f 509/2/1 510/5/1 511/6/1 512/3/1
f 513/2/1 514/5/1 515/6/1 516/3/1
f 517/2/1 518/5/1 519/6/1 520/3/1
f 521/2/1 522/5/1 523/6/1 524/3/1
f 525/2/1 526/5/1 527/6/1 528/3/1
f 529/2/1 530/5/1 531/6/1 532/3/1
f 533/2/1 534/5/1 535/6/1 536/3/1
f 537/2/1 538/5/1 539/6/1 540/3/1
f 541/9/1 542/10/1 543/2/1 544/1/1
f 545/15/1 546/16/1 547/17/1 548/18/1
f 549/44/1 550/43/1 551/48/1 552/49/1
f 553/33/1 554/34/1 555/7/1 556/5/1
f 557/9/1 558/10/1 559/2/1 560/1/1
f 561/19/1 562/20/1 563/21/1 564/22/1
f 565/19/1 566/20/1 567/21/1 568/22/1
f 569/19/1 570/20/1 571/21/1 572/22/1
f 573/16/1 574/23/1 575/24/1 576/17/1
f 577/19/1 578/20/1 579/21/1 580/22/1
f 581/19/1 582/20/1 583/21/1 584/22/1
f 585/19/1 586/20/1 587/21/1 588/22/1
f 589/15/1 590/16/1 591/17/1 592/18/1
f 593/15/1 594/16/1 595/17/1 596/18/1
f 597/15/1 598/16/1 599/17/1 600/18/1
f 601/16/1 602/23/1 603/24/1 604/17/1
f 605/33/1 606/34/1 607/7/1 608/5/1
f 609/45/1 610/46/1 611/10/1 612/9/1
f 613/46/1 614/47/1 615/33/1 616/10/1
f 617/46/1 618/47/1 619/33/1 620/10/1
f 621/46/1 622/47/1 623/33/1 624/10/1
f 625/46/1 626/47/1 627/33/1 628/10/1
f 629/46/1 630/47/1 631/33/1 632/10/1
f 633/46/1 634/47/1 635/33/1 636/10/1
f 637/46/1 638/47/1 639/33/1 640/10/1
f 641/46/1 642/47/1 643/33/1 644/10/1
f 645/46/1 646/47/1 647/33/1 648/10/1
f 649/46/1 650/47/1 651/33/1 652/10/1
f 653/46/1 654/47/1 655/33/1 656/10/1
f 657/47/1 658/50/1 659/34/1 660/33/1

