# Tiled2Unity generated file. Do not modify by hand.
# Wavefront file for 'Platform_Red1_mesh_0002.obj'

# Vertices (Count = 172)
v 0 -16 0
v -16 -16 0
v -16 0 0
v 0 0 0
v -16 -16 0
v -32 -16 0
v -32 0 0
v -16 0 0
v -32 -16 0
v -48 -16 0
v -48 0 0
v -32 0 0
v -48 -16 0
v -64 -16 0
v -64 0 0
v -48 0 0
v -64 -16 0
v -80 -16 0
v -80 0 0
v -64 0 0
v -80 -16 0
v -96 -16 0
v -96 0 0
v -80 0 0
v -96 -16 0
v -112 -16 0
v -112 0 0
v -96 0 0
v -112 -16 0
v -128 -16 0
v -128 0 0
v -112 0 0
v -128 -16 0
v -144 -16 0
v -144 0 0
v -128 0 0
v -144 -16 0
v -160 -16 0
v -160 0 0
v -144 0 0
v 0 -32 0
v -16 -32 0
v -16 -16 0
v 0 -16 0
v -16 -32 0
v -32 -32 0
v -32 -16 0
v -16 -16 0
v -32 -32 0
v -48 -32 0
v -48 -16 0
v -32 -16 0
v -48 -32 0
v -64 -32 0
v -64 -16 0
v -48 -16 0
v -64 -32 0
v -80 -32 0
v -80 -16 0
v -64 -16 0
v 0 -48 0
v -16 -48 0
v -16 -32 0
v 0 -32 0
v 0 -64 0
v -16 -64 0
v -16 -48 0
v 0 -48 0
v -144 -64 0
v -160 -64 0
v -160 -48 0
v -144 -48 0
v 0 -80 0
v -16 -80 0
v -16 -64 0
v 0 -64 0
v -112 -80 0
v -128 -80 0
v -128 -64 0
v -112 -64 0
v -128 -80 0
v -144 -80 0
v -144 -64 0
v -128 -64 0
v -144 -80 0
v -160 -80 0
v -160 -64 0
v -144 -64 0
v 0 -96 0
v -16 -96 0
v -16 -80 0
v 0 -80 0
v -112 -96 0
v -128 -96 0
v -128 -80 0
v -112 -80 0
v -128 -96 0
v -144 -96 0
v -144 -80 0
v -128 -80 0
v -144 -96 0
v -160 -96 0
v -160 -80 0
v -144 -80 0
v 0 -112 0
v -16 -112 0
v -16 -96 0
v 0 -96 0
v -48 -112 0
v -64 -112 0
v -64 -96 0
v -48 -96 0
v -64 -112 0
v -80 -112 0
v -80 -96 0
v -64 -96 0
v -80 -112 0
v -96 -112 0
v -96 -96 0
v -80 -96 0
v -144 -112 0
v -160 -112 0
v -160 -96 0
v -144 -96 0
v 0 -128 0
v -16 -128 0
v -16 -112 0
v 0 -112 0
v -144 -128 0
v -160 -128 0
v -160 -112 0
v -144 -112 0
v 0 -144 0
v -16 -144 0
v -16 -128 0
v 0 -128 0
v -144 -144 0
v -160 -144 0
v -160 -128 0
v -144 -128 0
v 0 -160 0
v -16 -160 0
v -16 -144 0
v 0 -144 0
v -16 -160 0
v -32 -160 0
v -32 -144 0
v -16 -144 0
v -32 -160 0
v -48 -160 0
v -48 -144 0
v -32 -144 0
v -48 -160 0
v -64 -160 0
v -64 -144 0
v -48 -144 0
v -64 -160 0
v -80 -160 0
v -80 -144 0
v -64 -144 0
v -80 -160 0
v -96 -160 0
v -96 -144 0
v -80 -144 0
v -96 -160 0
v -112 -160 0
v -112 -144 0
v -96 -144 0
v -144 -160 0
v -160 -160 0
v -160 -144 0
v -144 -144 0

# Texture cooridinates (Count = 30)
vt 0.421875 0.975
vt 0.4375 0.975
vt 0.4375 1
vt 0.421875 1
vt 0.453125 0.975
vt 0.453125 1
vt 0.46875 0.975
vt 0.46875 1
vt 0.484375 0.975
vt 0.484375 1
vt 0.421875 0.95
vt 0.4375 0.95
vt 0.171875 0.65
vt 0.1875 0.65
vt 0.1875 0.675
vt 0.171875 0.675
vt 0.046875 0.925
vt 0.0625 0.925
vt 0.0625 0.95
vt 0.046875 0.95
vt 0.453125 0.95
vt 0.1875 0.55
vt 0.203125 0.55
vt 0.203125 0.575
vt 0.1875 0.575
vt 0.421875 0.925
vt 0.4375 0.925
vt 0.453125 0.925
vt 0.46875 0.925
vt 0.46875 0.95

# Normal
vn 0 0 -1

# Mesh description
g Platform_Red1_mesh_0002

# Faces
f 1/1/1 2/2/1 3/3/1 4/4/1
f 5/2/1 6/5/1 7/6/1 8/3/1
f 9/2/1 10/5/1 11/6/1 12/3/1
f 13/5/1 14/7/1 15/8/1 16/6/1
f 17/5/1 18/7/1 19/8/1 20/6/1
f 21/2/1 22/5/1 23/6/1 24/3/1
f 25/2/1 26/5/1 27/6/1 28/3/1
f 29/5/1 30/7/1 31/8/1 32/6/1
f 33/5/1 34/7/1 35/8/1 36/6/1
f 37/7/1 38/9/1 39/10/1 40/8/1
f 41/11/1 42/12/1 43/2/1 44/1/1
f 45/13/1 46/14/1 47/15/1 48/16/1
f 49/13/1 50/14/1 51/15/1 52/16/1
f 53/13/1 54/14/1 55/15/1 56/16/1
f 57/13/1 58/14/1 59/15/1 60/16/1
f 61/11/1 62/12/1 63/2/1 64/1/1
f 65/11/1 66/12/1 67/2/1 68/1/1
f 69/17/1 70/18/1 71/19/1 72/20/1
f 73/11/1 74/12/1 75/2/1 76/1/1
f 77/12/1 78/21/1 79/5/1 80/2/1
f 81/21/1 82/12/1 83/2/1 84/5/1
f 85/17/1 86/18/1 87/19/1 88/20/1
f 89/11/1 90/12/1 91/2/1 92/1/1
f 93/22/1 94/23/1 95/24/1 96/25/1
f 97/22/1 98/23/1 99/24/1 100/25/1
f 101/13/1 102/14/1 103/15/1 104/16/1
f 105/11/1 106/12/1 107/2/1 108/1/1
f 109/12/1 110/21/1 111/5/1 112/2/1
f 113/21/1 114/12/1 115/2/1 116/5/1
f 117/13/1 118/14/1 119/15/1 120/16/1
f 121/13/1 122/14/1 123/15/1 124/16/1
f 125/11/1 126/12/1 127/2/1 128/1/1
f 129/13/1 130/14/1 131/15/1 132/16/1
f 133/11/1 134/12/1 135/2/1 136/1/1
f 137/13/1 138/14/1 139/15/1 140/16/1
f 141/4/1 142/3/1 143/2/1 144/1/1
f 145/26/1 146/27/1 147/12/1 148/11/1
f 149/27/1 150/28/1 151/21/1 152/12/1
f 153/28/1 154/29/1 155/30/1 156/21/1
f 157/27/1 158/28/1 159/21/1 160/12/1
f 161/28/1 162/29/1 163/30/1 164/21/1
f 165/27/1 166/28/1 167/21/1 168/12/1
f 169/13/1 170/14/1 171/15/1 172/16/1

