# Tiled2Unity generated file. Do not modify by hand.
# Wavefront file for 'FinalLevelHazards_mesh_0001.obj'

# Vertices (Count = 20)
v -4 -4 0
v -5 -4 0
v -5 -3 0
v -4 -3 0
v -3 -5 0
v -4 -5 0
v -4 -4 0
v -3 -4 0
v -4 -5 0
v -5 -5 0
v -5 -4 0
v -4 -4 0
v -5 -5 0
v -6 -5 0
v -6 -4 0
v -5 -4 0
v -4 -6 0
v -5 -6 0
v -5 -5 0
v -4 -5 0

# Texture cooridinates (Count = 4)
vt 0.15625 0.9
vt 0.171875 0.9
vt 0.171875 0.925
vt 0.15625 0.925

# Normal
vn 0 0 -1

# Mesh description
g FinalLevelHazards_mesh_0001

# Faces
f 1/1/1 2/2/1 3/3/1 4/4/1
f 5/1/1 6/2/1 7/3/1 8/4/1
f 9/1/1 10/2/1 11/3/1 12/4/1
f 13/1/1 14/2/1 15/3/1 16/4/1
f 17/1/1 18/2/1 19/3/1 20/4/1

