# Tiled2Unity generated file. Do not modify by hand.
# Wavefront file for 'FinalLevel_mesh_0002.obj'

# Vertices (Count = 1200)
v -10 -1 0
v -11 -1 0
v -11 0 0
v -10 0 0
v -11 -1 0
v -12 -1 0
v -12 0 0
v -11 0 0
v -12 -1 0
v -13 -1 0
v -13 0 0
v -12 0 0
v -13 -1 0
v -14 -1 0
v -14 0 0
v -13 0 0
v -14 -1 0
v -15 -1 0
v -15 0 0
v -14 0 0
v -15 -1 0
v -16 -1 0
v -16 0 0
v -15 0 0
v -10 -2 0
v -11 -2 0
v -11 -1 0
v -10 -1 0
v -11 -2 0
v -12 -2 0
v -12 -1 0
v -11 -1 0
v -12 -2 0
v -13 -2 0
v -13 -1 0
v -12 -1 0
v -13 -2 0
v -14 -2 0
v -14 -1 0
v -13 -1 0
v -14 -2 0
v -15 -2 0
v -15 -1 0
v -14 -1 0
v -15 -2 0
v -16 -2 0
v -16 -1 0
v -15 -1 0
v -10 -3 0
v -11 -3 0
v -11 -2 0
v -10 -2 0
v -11 -3 0
v -12 -3 0
v -12 -2 0
v -11 -2 0
v -12 -3 0
v -13 -3 0
v -13 -2 0
v -12 -2 0
v -13 -3 0
v -14 -3 0
v -14 -2 0
v -13 -2 0
v -14 -3 0
v -15 -3 0
v -15 -2 0
v -14 -2 0
v -15 -3 0
v -16 -3 0
v -16 -2 0
v -15 -2 0
v -10 -4 0
v -11 -4 0
v -11 -3 0
v -10 -3 0
v -11 -4 0
v -12 -4 0
v -12 -3 0
v -11 -3 0
v -12 -4 0
v -13 -4 0
v -13 -3 0
v -12 -3 0
v -13 -4 0
v -14 -4 0
v -14 -3 0
v -13 -3 0
v -14 -4 0
v -15 -4 0
v -15 -3 0
v -14 -3 0
v -15 -4 0
v -16 -4 0
v -16 -3 0
v -15 -3 0
v -10 -5 0
v -11 -5 0
v -11 -4 0
v -10 -4 0
v -11 -5 0
v -12 -5 0
v -12 -4 0
v -11 -4 0
v -12 -5 0
v -13 -5 0
v -13 -4 0
v -12 -4 0
v -13 -5 0
v -14 -5 0
v -14 -4 0
v -13 -4 0
v -14 -5 0
v -15 -5 0
v -15 -4 0
v -14 -4 0
v -15 -5 0
v -16 -5 0
v -16 -4 0
v -15 -4 0
v -10 -6 0
v -11 -6 0
v -11 -5 0
v -10 -5 0
v -11 -6 0
v -12 -6 0
v -12 -5 0
v -11 -5 0
v -12 -6 0
v -13 -6 0
v -13 -5 0
v -12 -5 0
v -13 -6 0
v -14 -6 0
v -14 -5 0
v -13 -5 0
v -14 -6 0
v -15 -6 0
v -15 -5 0
v -14 -5 0
v -15 -6 0
v -16 -6 0
v -16 -5 0
v -15 -5 0
v -10 -7 0
v -11 -7 0
v -11 -6 0
v -10 -6 0
v -11 -7 0
v -12 -7 0
v -12 -6 0
v -11 -6 0
v -12 -7 0
v -13 -7 0
v -13 -6 0
v -12 -6 0
v -13 -7 0
v -14 -7 0
v -14 -6 0
v -13 -6 0
v -14 -7 0
v -15 -7 0
v -15 -6 0
v -14 -6 0
v -15 -7 0
v -16 -7 0
v -16 -6 0
v -15 -6 0
v -10 -8 0
v -11 -8 0
v -11 -7 0
v -10 -7 0
v -11 -8 0
v -12 -8 0
v -12 -7 0
v -11 -7 0
v -12 -8 0
v -13 -8 0
v -13 -7 0
v -12 -7 0
v -13 -8 0
v -14 -8 0
v -14 -7 0
v -13 -7 0
v -14 -8 0
v -15 -8 0
v -15 -7 0
v -14 -7 0
v -15 -8 0
v -16 -8 0
v -16 -7 0
v -15 -7 0
v -10 -9 0
v -11 -9 0
v -11 -8 0
v -10 -8 0
v -11 -9 0
v -12 -9 0
v -12 -8 0
v -11 -8 0
v -12 -9 0
v -13 -9 0
v -13 -8 0
v -12 -8 0
v -13 -9 0
v -14 -9 0
v -14 -8 0
v -13 -8 0
v -14 -9 0
v -15 -9 0
v -15 -8 0
v -14 -8 0
v -15 -9 0
v -16 -9 0
v -16 -8 0
v -15 -8 0
v -10 -10 0
v -11 -10 0
v -11 -9 0
v -10 -9 0
v -11 -10 0
v -12 -10 0
v -12 -9 0
v -11 -9 0
v -12 -10 0
v -13 -10 0
v -13 -9 0
v -12 -9 0
v -13 -10 0
v -14 -10 0
v -14 -9 0
v -13 -9 0
v -14 -10 0
v -15 -10 0
v -15 -9 0
v -14 -9 0
v -15 -10 0
v -16 -10 0
v -16 -9 0
v -15 -9 0
v -10 -11 0
v -11 -11 0
v -11 -10 0
v -10 -10 0
v -11 -11 0
v -12 -11 0
v -12 -10 0
v -11 -10 0
v -12 -11 0
v -13 -11 0
v -13 -10 0
v -12 -10 0
v -13 -11 0
v -14 -11 0
v -14 -10 0
v -13 -10 0
v -14 -11 0
v -15 -11 0
v -15 -10 0
v -14 -10 0
v -15 -11 0
v -16 -11 0
v -16 -10 0
v -15 -10 0
v -10 -12 0
v -11 -12 0
v -11 -11 0
v -10 -11 0
v -11 -12 0
v -12 -12 0
v -12 -11 0
v -11 -11 0
v -12 -12 0
v -13 -12 0
v -13 -11 0
v -12 -11 0
v -13 -12 0
v -14 -12 0
v -14 -11 0
v -13 -11 0
v -14 -12 0
v -15 -12 0
v -15 -11 0
v -14 -11 0
v -15 -12 0
v -16 -12 0
v -16 -11 0
v -15 -11 0
v -10 -13 0
v -11 -13 0
v -11 -12 0
v -10 -12 0
v -11 -13 0
v -12 -13 0
v -12 -12 0
v -11 -12 0
v -12 -13 0
v -13 -13 0
v -13 -12 0
v -12 -12 0
v -13 -13 0
v -14 -13 0
v -14 -12 0
v -13 -12 0
v -14 -13 0
v -15 -13 0
v -15 -12 0
v -14 -12 0
v -15 -13 0
v -16 -13 0
v -16 -12 0
v -15 -12 0
v -10 -14 0
v -11 -14 0
v -11 -13 0
v -10 -13 0
v -11 -14 0
v -12 -14 0
v -12 -13 0
v -11 -13 0
v -12 -14 0
v -13 -14 0
v -13 -13 0
v -12 -13 0
v -13 -14 0
v -14 -14 0
v -14 -13 0
v -13 -13 0
v -14 -14 0
v -15 -14 0
v -15 -13 0
v -14 -13 0
v -15 -14 0
v -16 -14 0
v -16 -13 0
v -15 -13 0
v -10 -15 0
v -11 -15 0
v -11 -14 0
v -10 -14 0
v -11 -15 0
v -12 -15 0
v -12 -14 0
v -11 -14 0
v -12 -15 0
v -13 -15 0
v -13 -14 0
v -12 -14 0
v -13 -15 0
v -14 -15 0
v -14 -14 0
v -13 -14 0
v -14 -15 0
v -15 -15 0
v -15 -14 0
v -14 -14 0
v -15 -15 0
v -16 -15 0
v -16 -14 0
v -15 -14 0
v -10 -16 0
v -11 -16 0
v -11 -15 0
v -10 -15 0
v -11 -16 0
v -12 -16 0
v -12 -15 0
v -11 -15 0
v -12 -16 0
v -13 -16 0
v -13 -15 0
v -12 -15 0
v -13 -16 0
v -14 -16 0
v -14 -15 0
v -13 -15 0
v -14 -16 0
v -15 -16 0
v -15 -15 0
v -14 -15 0
v -15 -16 0
v -16 -16 0
v -16 -15 0
v -15 -15 0
v -10 -17 0
v -11 -17 0
v -11 -16 0
v -10 -16 0
v -11 -17 0
v -12 -17 0
v -12 -16 0
v -11 -16 0
v -12 -17 0
v -13 -17 0
v -13 -16 0
v -12 -16 0
v -13 -17 0
v -14 -17 0
v -14 -16 0
v -13 -16 0
v -14 -17 0
v -15 -17 0
v -15 -16 0
v -14 -16 0
v -15 -17 0
v -16 -17 0
v -16 -16 0
v -15 -16 0
v -10 -18 0
v -11 -18 0
v -11 -17 0
v -10 -17 0
v -11 -18 0
v -12 -18 0
v -12 -17 0
v -11 -17 0
v -12 -18 0
v -13 -18 0
v -13 -17 0
v -12 -17 0
v -13 -18 0
v -14 -18 0
v -14 -17 0
v -13 -17 0
v -14 -18 0
v -15 -18 0
v -15 -17 0
v -14 -17 0
v -15 -18 0
v -16 -18 0
v -16 -17 0
v -15 -17 0
v -10 -19 0
v -11 -19 0
v -11 -18 0
v -10 -18 0
v -11 -19 0
v -12 -19 0
v -12 -18 0
v -11 -18 0
v -12 -19 0
v -13 -19 0
v -13 -18 0
v -12 -18 0
v -13 -19 0
v -14 -19 0
v -14 -18 0
v -13 -18 0
v -14 -19 0
v -15 -19 0
v -15 -18 0
v -14 -18 0
v -15 -19 0
v -16 -19 0
v -16 -18 0
v -15 -18 0
v -10 -20 0
v -11 -20 0
v -11 -19 0
v -10 -19 0
v -11 -20 0
v -12 -20 0
v -12 -19 0
v -11 -19 0
v -12 -20 0
v -13 -20 0
v -13 -19 0
v -12 -19 0
v -13 -20 0
v -14 -20 0
v -14 -19 0
v -13 -19 0
v -14 -20 0
v -15 -20 0
v -15 -19 0
v -14 -19 0
v -15 -20 0
v -16 -20 0
v -16 -19 0
v -15 -19 0
v -10 -21 0
v -11 -21 0
v -11 -20 0
v -10 -20 0
v -11 -21 0
v -12 -21 0
v -12 -20 0
v -11 -20 0
v -12 -21 0
v -13 -21 0
v -13 -20 0
v -12 -20 0
v -13 -21 0
v -14 -21 0
v -14 -20 0
v -13 -20 0
v -14 -21 0
v -15 -21 0
v -15 -20 0
v -14 -20 0
v -15 -21 0
v -16 -21 0
v -16 -20 0
v -15 -20 0
v -10 -22 0
v -11 -22 0
v -11 -21 0
v -10 -21 0
v -11 -22 0
v -12 -22 0
v -12 -21 0
v -11 -21 0
v -12 -22 0
v -13 -22 0
v -13 -21 0
v -12 -21 0
v -13 -22 0
v -14 -22 0
v -14 -21 0
v -13 -21 0
v -14 -22 0
v -15 -22 0
v -15 -21 0
v -14 -21 0
v -15 -22 0
v -16 -22 0
v -16 -21 0
v -15 -21 0
v -10 -23 0
v -11 -23 0
v -11 -22 0
v -10 -22 0
v -11 -23 0
v -12 -23 0
v -12 -22 0
v -11 -22 0
v -12 -23 0
v -13 -23 0
v -13 -22 0
v -12 -22 0
v -13 -23 0
v -14 -23 0
v -14 -22 0
v -13 -22 0
v -14 -23 0
v -15 -23 0
v -15 -22 0
v -14 -22 0
v -15 -23 0
v -16 -23 0
v -16 -22 0
v -15 -22 0
v -10 -24 0
v -11 -24 0
v -11 -23 0
v -10 -23 0
v -11 -24 0
v -12 -24 0
v -12 -23 0
v -11 -23 0
v -12 -24 0
v -13 -24 0
v -13 -23 0
v -12 -23 0
v -13 -24 0
v -14 -24 0
v -14 -23 0
v -13 -23 0
v -14 -24 0
v -15 -24 0
v -15 -23 0
v -14 -23 0
v -15 -24 0
v -16 -24 0
v -16 -23 0
v -15 -23 0
v -10 -25 0
v -11 -25 0
v -11 -24 0
v -10 -24 0
v -11 -25 0
v -12 -25 0
v -12 -24 0
v -11 -24 0
v -12 -25 0
v -13 -25 0
v -13 -24 0
v -12 -24 0
v -13 -25 0
v -14 -25 0
v -14 -24 0
v -13 -24 0
v -14 -25 0
v -15 -25 0
v -15 -24 0
v -14 -24 0
v -15 -25 0
v -16 -25 0
v -16 -24 0
v -15 -24 0
v -10 -26 0
v -11 -26 0
v -11 -25 0
v -10 -25 0
v -11 -26 0
v -12 -26 0
v -12 -25 0
v -11 -25 0
v -12 -26 0
v -13 -26 0
v -13 -25 0
v -12 -25 0
v -13 -26 0
v -14 -26 0
v -14 -25 0
v -13 -25 0
v -14 -26 0
v -15 -26 0
v -15 -25 0
v -14 -25 0
v -15 -26 0
v -16 -26 0
v -16 -25 0
v -15 -25 0
v -10 -27 0
v -11 -27 0
v -11 -26 0
v -10 -26 0
v -11 -27 0
v -12 -27 0
v -12 -26 0
v -11 -26 0
v -12 -27 0
v -13 -27 0
v -13 -26 0
v -12 -26 0
v -13 -27 0
v -14 -27 0
v -14 -26 0
v -13 -26 0
v -14 -27 0
v -15 -27 0
v -15 -26 0
v -14 -26 0
v -15 -27 0
v -16 -27 0
v -16 -26 0
v -15 -26 0
v -10 -28 0
v -11 -28 0
v -11 -27 0
v -10 -27 0
v -11 -28 0
v -12 -28 0
v -12 -27 0
v -11 -27 0
v -12 -28 0
v -13 -28 0
v -13 -27 0
v -12 -27 0
v -13 -28 0
v -14 -28 0
v -14 -27 0
v -13 -27 0
v -14 -28 0
v -15 -28 0
v -15 -27 0
v -14 -27 0
v -15 -28 0
v -16 -28 0
v -16 -27 0
v -15 -27 0
v -10 -29 0
v -11 -29 0
v -11 -28 0
v -10 -28 0
v -11 -29 0
v -12 -29 0
v -12 -28 0
v -11 -28 0
v -12 -29 0
v -13 -29 0
v -13 -28 0
v -12 -28 0
v -13 -29 0
v -14 -29 0
v -14 -28 0
v -13 -28 0
v -14 -29 0
v -15 -29 0
v -15 -28 0
v -14 -28 0
v -15 -29 0
v -16 -29 0
v -16 -28 0
v -15 -28 0
v -10 -30 0
v -11 -30 0
v -11 -29 0
v -10 -29 0
v -11 -30 0
v -12 -30 0
v -12 -29 0
v -11 -29 0
v -12 -30 0
v -13 -30 0
v -13 -29 0
v -12 -29 0
v -13 -30 0
v -14 -30 0
v -14 -29 0
v -13 -29 0
v -14 -30 0
v -15 -30 0
v -15 -29 0
v -14 -29 0
v -15 -30 0
v -16 -30 0
v -16 -29 0
v -15 -29 0
v -10 -31 0
v -11 -31 0
v -11 -30 0
v -10 -30 0
v -11 -31 0
v -12 -31 0
v -12 -30 0
v -11 -30 0
v -12 -31 0
v -13 -31 0
v -13 -30 0
v -12 -30 0
v -13 -31 0
v -14 -31 0
v -14 -30 0
v -13 -30 0
v -14 -31 0
v -15 -31 0
v -15 -30 0
v -14 -30 0
v -15 -31 0
v -16 -31 0
v -16 -30 0
v -15 -30 0
v -10 -32 0
v -11 -32 0
v -11 -31 0
v -10 -31 0
v -11 -32 0
v -12 -32 0
v -12 -31 0
v -11 -31 0
v -12 -32 0
v -13 -32 0
v -13 -31 0
v -12 -31 0
v -13 -32 0
v -14 -32 0
v -14 -31 0
v -13 -31 0
v -14 -32 0
v -15 -32 0
v -15 -31 0
v -14 -31 0
v -15 -32 0
v -16 -32 0
v -16 -31 0
v -15 -31 0
v -10 -33 0
v -11 -33 0
v -11 -32 0
v -10 -32 0
v -11 -33 0
v -12 -33 0
v -12 -32 0
v -11 -32 0
v -12 -33 0
v -13 -33 0
v -13 -32 0
v -12 -32 0
v -13 -33 0
v -14 -33 0
v -14 -32 0
v -13 -32 0
v -14 -33 0
v -15 -33 0
v -15 -32 0
v -14 -32 0
v -15 -33 0
v -16 -33 0
v -16 -32 0
v -15 -32 0
v -10 -34 0
v -11 -34 0
v -11 -33 0
v -10 -33 0
v -11 -34 0
v -12 -34 0
v -12 -33 0
v -11 -33 0
v -12 -34 0
v -13 -34 0
v -13 -33 0
v -12 -33 0
v -13 -34 0
v -14 -34 0
v -14 -33 0
v -13 -33 0
v -14 -34 0
v -15 -34 0
v -15 -33 0
v -14 -33 0
v -15 -34 0
v -16 -34 0
v -16 -33 0
v -15 -33 0
v -10 -35 0
v -11 -35 0
v -11 -34 0
v -10 -34 0
v -11 -35 0
v -12 -35 0
v -12 -34 0
v -11 -34 0
v -12 -35 0
v -13 -35 0
v -13 -34 0
v -12 -34 0
v -13 -35 0
v -14 -35 0
v -14 -34 0
v -13 -34 0
v -14 -35 0
v -15 -35 0
v -15 -34 0
v -14 -34 0
v -15 -35 0
v -16 -35 0
v -16 -34 0
v -15 -34 0
v -10 -36 0
v -11 -36 0
v -11 -35 0
v -10 -35 0
v -11 -36 0
v -12 -36 0
v -12 -35 0
v -11 -35 0
v -12 -36 0
v -13 -36 0
v -13 -35 0
v -12 -35 0
v -13 -36 0
v -14 -36 0
v -14 -35 0
v -13 -35 0
v -14 -36 0
v -15 -36 0
v -15 -35 0
v -14 -35 0
v -15 -36 0
v -16 -36 0
v -16 -35 0
v -15 -35 0
v -10 -37 0
v -11 -37 0
v -11 -36 0
v -10 -36 0
v -11 -37 0
v -12 -37 0
v -12 -36 0
v -11 -36 0
v -12 -37 0
v -13 -37 0
v -13 -36 0
v -12 -36 0
v -13 -37 0
v -14 -37 0
v -14 -36 0
v -13 -36 0
v -14 -37 0
v -15 -37 0
v -15 -36 0
v -14 -36 0
v -15 -37 0
v -16 -37 0
v -16 -36 0
v -15 -36 0
v -10 -38 0
v -11 -38 0
v -11 -37 0
v -10 -37 0
v -11 -38 0
v -12 -38 0
v -12 -37 0
v -11 -37 0
v -12 -38 0
v -13 -38 0
v -13 -37 0
v -12 -37 0
v -13 -38 0
v -14 -38 0
v -14 -37 0
v -13 -37 0
v -14 -38 0
v -15 -38 0
v -15 -37 0
v -14 -37 0
v -15 -38 0
v -16 -38 0
v -16 -37 0
v -15 -37 0
v -10 -39 0
v -11 -39 0
v -11 -38 0
v -10 -38 0
v -11 -39 0
v -12 -39 0
v -12 -38 0
v -11 -38 0
v -12 -39 0
v -13 -39 0
v -13 -38 0
v -12 -38 0
v -13 -39 0
v -14 -39 0
v -14 -38 0
v -13 -38 0
v -14 -39 0
v -15 -39 0
v -15 -38 0
v -14 -38 0
v -15 -39 0
v -16 -39 0
v -16 -38 0
v -15 -38 0
v -10 -40 0
v -11 -40 0
v -11 -39 0
v -10 -39 0
v -11 -40 0
v -12 -40 0
v -12 -39 0
v -11 -39 0
v -12 -40 0
v -13 -40 0
v -13 -39 0
v -12 -39 0
v -13 -40 0
v -14 -40 0
v -14 -39 0
v -13 -39 0
v -14 -40 0
v -15 -40 0
v -15 -39 0
v -14 -39 0
v -15 -40 0
v -16 -40 0
v -16 -39 0
v -15 -39 0
v -10 -41 0
v -11 -41 0
v -11 -40 0
v -10 -40 0
v -11 -41 0
v -12 -41 0
v -12 -40 0
v -11 -40 0
v -12 -41 0
v -13 -41 0
v -13 -40 0
v -12 -40 0
v -13 -41 0
v -14 -41 0
v -14 -40 0
v -13 -40 0
v -14 -41 0
v -15 -41 0
v -15 -40 0
v -14 -40 0
v -15 -41 0
v -16 -41 0
v -16 -40 0
v -15 -40 0
v -10 -42 0
v -11 -42 0
v -11 -41 0
v -10 -41 0
v -11 -42 0
v -12 -42 0
v -12 -41 0
v -11 -41 0
v -12 -42 0
v -13 -42 0
v -13 -41 0
v -12 -41 0
v -13 -42 0
v -14 -42 0
v -14 -41 0
v -13 -41 0
v -14 -42 0
v -15 -42 0
v -15 -41 0
v -14 -41 0
v -15 -42 0
v -16 -42 0
v -16 -41 0
v -15 -41 0
v -10 -43 0
v -11 -43 0
v -11 -42 0
v -10 -42 0
v -11 -43 0
v -12 -43 0
v -12 -42 0
v -11 -42 0
v -12 -43 0
v -13 -43 0
v -13 -42 0
v -12 -42 0
v -13 -43 0
v -14 -43 0
v -14 -42 0
v -13 -42 0
v -14 -43 0
v -15 -43 0
v -15 -42 0
v -14 -42 0
v -15 -43 0
v -16 -43 0
v -16 -42 0
v -15 -42 0
v -10 -44 0
v -11 -44 0
v -11 -43 0
v -10 -43 0
v -11 -44 0
v -12 -44 0
v -12 -43 0
v -11 -43 0
v -12 -44 0
v -13 -44 0
v -13 -43 0
v -12 -43 0
v -13 -44 0
v -14 -44 0
v -14 -43 0
v -13 -43 0
v -14 -44 0
v -15 -44 0
v -15 -43 0
v -14 -43 0
v -15 -44 0
v -16 -44 0
v -16 -43 0
v -15 -43 0
v -10 -45 0
v -11 -45 0
v -11 -44 0
v -10 -44 0
v -11 -45 0
v -12 -45 0
v -12 -44 0
v -11 -44 0
v -12 -45 0
v -13 -45 0
v -13 -44 0
v -12 -44 0
v -13 -45 0
v -14 -45 0
v -14 -44 0
v -13 -44 0
v -14 -45 0
v -15 -45 0
v -15 -44 0
v -14 -44 0
v -15 -45 0
v -16 -45 0
v -16 -44 0
v -15 -44 0
v -10 -46 0
v -11 -46 0
v -11 -45 0
v -10 -45 0
v -11 -46 0
v -12 -46 0
v -12 -45 0
v -11 -45 0
v -12 -46 0
v -13 -46 0
v -13 -45 0
v -12 -45 0
v -13 -46 0
v -14 -46 0
v -14 -45 0
v -13 -45 0
v -14 -46 0
v -15 -46 0
v -15 -45 0
v -14 -45 0
v -15 -46 0
v -16 -46 0
v -16 -45 0
v -15 -45 0
v -10 -47 0
v -11 -47 0
v -11 -46 0
v -10 -46 0
v -11 -47 0
v -12 -47 0
v -12 -46 0
v -11 -46 0
v -12 -47 0
v -13 -47 0
v -13 -46 0
v -12 -46 0
v -13 -47 0
v -14 -47 0
v -14 -46 0
v -13 -46 0
v -14 -47 0
v -15 -47 0
v -15 -46 0
v -14 -46 0
v -15 -47 0
v -16 -47 0
v -16 -46 0
v -15 -46 0
v -10 -48 0
v -11 -48 0
v -11 -47 0
v -10 -47 0
v -11 -48 0
v -12 -48 0
v -12 -47 0
v -11 -47 0
v -12 -48 0
v -13 -48 0
v -13 -47 0
v -12 -47 0
v -13 -48 0
v -14 -48 0
v -14 -47 0
v -13 -47 0
v -14 -48 0
v -15 -48 0
v -15 -47 0
v -14 -47 0
v -15 -48 0
v -16 -48 0
v -16 -47 0
v -15 -47 0
v -10 -49 0
v -11 -49 0
v -11 -48 0
v -10 -48 0
v -11 -49 0
v -12 -49 0
v -12 -48 0
v -11 -48 0
v -12 -49 0
v -13 -49 0
v -13 -48 0
v -12 -48 0
v -13 -49 0
v -14 -49 0
v -14 -48 0
v -13 -48 0
v -14 -49 0
v -15 -49 0
v -15 -48 0
v -14 -48 0
v -15 -49 0
v -16 -49 0
v -16 -48 0
v -15 -48 0
v -10 -50 0
v -11 -50 0
v -11 -49 0
v -10 -49 0
v -11 -50 0
v -12 -50 0
v -12 -49 0
v -11 -49 0
v -12 -50 0
v -13 -50 0
v -13 -49 0
v -12 -49 0
v -13 -50 0
v -14 -50 0
v -14 -49 0
v -13 -49 0
v -14 -50 0
v -15 -50 0
v -15 -49 0
v -14 -49 0
v -15 -50 0
v -16 -50 0
v -16 -49 0
v -15 -49 0

# Texture cooridinates (Count = 10)
vt 0.4375 0.475
vt 0.453125 0.475
vt 0.453125 0.5
vt 0.4375 0.5
vt 0.46875 0.475
vt 0.46875 0.5
vt 0.484375 0.475
vt 0.484375 0.5
vt 0.5 0.475
vt 0.5 0.5

# Normal
vn 0 0 -1

# Mesh description
g FinalLevel_mesh_0002

# Faces
f 1/1/1 2/2/1 3/3/1 4/4/1
f 5/2/1 6/5/1 7/6/1 8/3/1
f 9/5/1 10/7/1 11/8/1 12/6/1
f 13/7/1 14/9/1 15/10/1 16/8/1
f 17/5/1 18/7/1 19/8/1 20/6/1
f 21/7/1 22/9/1 23/10/1 24/8/1
f 25/1/1 26/2/1 27/3/1 28/4/1
f 29/2/1 30/5/1 31/6/1 32/3/1
f 33/5/1 34/7/1 35/8/1 36/6/1
f 37/7/1 38/9/1 39/10/1 40/8/1
f 41/5/1 42/7/1 43/8/1 44/6/1
f 45/7/1 46/9/1 47/10/1 48/8/1
f 49/1/1 50/2/1 51/3/1 52/4/1
f 53/2/1 54/5/1 55/6/1 56/3/1
f 57/5/1 58/7/1 59/8/1 60/6/1
f 61/7/1 62/9/1 63/10/1 64/8/1
f 65/5/1 66/7/1 67/8/1 68/6/1
f 69/7/1 70/9/1 71/10/1 72/8/1
f 73/1/1 74/2/1 75/3/1 76/4/1
f 77/2/1 78/5/1 79/6/1 80/3/1
f 81/5/1 82/7/1 83/8/1 84/6/1
f 85/7/1 86/9/1 87/10/1 88/8/1
f 89/5/1 90/7/1 91/8/1 92/6/1
f 93/7/1 94/9/1 95/10/1 96/8/1
f 97/1/1 98/2/1 99/3/1 100/4/1
f 101/2/1 102/5/1 103/6/1 104/3/1
f 105/5/1 106/7/1 107/8/1 108/6/1
f 109/7/1 110/9/1 111/10/1 112/8/1
f 113/5/1 114/7/1 115/8/1 116/6/1
f 117/7/1 118/9/1 119/10/1 120/8/1
f 121/1/1 122/2/1 123/3/1 124/4/1
f 125/2/1 126/5/1 127/6/1 128/3/1
f 129/5/1 130/7/1 131/8/1 132/6/1
f 133/7/1 134/9/1 135/10/1 136/8/1
f 137/5/1 138/7/1 139/8/1 140/6/1
f 141/7/1 142/9/1 143/10/1 144/8/1
f 145/1/1 146/2/1 147/3/1 148/4/1
f 149/2/1 150/5/1 151/6/1 152/3/1
f 153/5/1 154/7/1 155/8/1 156/6/1
f 157/7/1 158/9/1 159/10/1 160/8/1
f 161/5/1 162/7/1 163/8/1 164/6/1
f 165/7/1 166/9/1 167/10/1 168/8/1
f 169/1/1 170/2/1 171/3/1 172/4/1
f 173/2/1 174/5/1 175/6/1 176/3/1
f 177/5/1 178/7/1 179/8/1 180/6/1
f 181/7/1 182/9/1 183/10/1 184/8/1
f 185/7/1 186/9/1 187/10/1 188/8/1
f 189/7/1 190/9/1 191/10/1 192/8/1
f 193/1/1 194/2/1 195/3/1 196/4/1
f 197/2/1 198/5/1 199/6/1 200/3/1
f 201/5/1 202/7/1 203/8/1 204/6/1
f 205/7/1 206/9/1 207/10/1 208/8/1
f 209/5/1 210/7/1 211/8/1 212/6/1
f 213/7/1 214/9/1 215/10/1 216/8/1
f 217/1/1 218/2/1 219/3/1 220/4/1
f 221/2/1 222/5/1 223/6/1 224/3/1
f 225/5/1 226/7/1 227/8/1 228/6/1
f 229/7/1 230/9/1 231/10/1 232/8/1
f 233/5/1 234/7/1 235/8/1 236/6/1
f 237/7/1 238/9/1 239/10/1 240/8/1
f 241/1/1 242/2/1 243/3/1 244/4/1
f 245/2/1 246/5/1 247/6/1 248/3/1
f 249/5/1 250/7/1 251/8/1 252/6/1
f 253/7/1 254/9/1 255/10/1 256/8/1
f 257/5/1 258/7/1 259/8/1 260/6/1
f 261/7/1 262/9/1 263/10/1 264/8/1
f 265/1/1 266/2/1 267/3/1 268/4/1
f 269/2/1 270/5/1 271/6/1 272/3/1
f 273/5/1 274/7/1 275/8/1 276/6/1
f 277/7/1 278/9/1 279/10/1 280/8/1
f 281/5/1 282/7/1 283/8/1 284/6/1
f 285/7/1 286/9/1 287/10/1 288/8/1
f 289/1/1 290/2/1 291/3/1 292/4/1
f 293/2/1 294/5/1 295/6/1 296/3/1
f 297/5/1 298/7/1 299/8/1 300/6/1
f 301/7/1 302/9/1 303/10/1 304/8/1
f 305/5/1 306/7/1 307/8/1 308/6/1
f 309/7/1 310/9/1 311/10/1 312/8/1
f 313/1/1 314/2/1 315/3/1 316/4/1
f 317/2/1 318/5/1 319/6/1 320/3/1
f 321/5/1 322/7/1 323/8/1 324/6/1
f 325/7/1 326/9/1 327/10/1 328/8/1
f 329/5/1 330/7/1 331/8/1 332/6/1
f 333/7/1 334/9/1 335/10/1 336/8/1
f 337/1/1 338/2/1 339/3/1 340/4/1
f 341/2/1 342/5/1 343/6/1 344/3/1
f 345/5/1 346/7/1 347/8/1 348/6/1
f 349/7/1 350/9/1 351/10/1 352/8/1
f 353/5/1 354/7/1 355/8/1 356/6/1
f 357/7/1 358/9/1 359/10/1 360/8/1
f 361/1/1 362/2/1 363/3/1 364/4/1
f 365/2/1 366/5/1 367/6/1 368/3/1
f 369/5/1 370/7/1 371/8/1 372/6/1
f 373/7/1 374/9/1 375/10/1 376/8/1
f 377/5/1 378/7/1 379/8/1 380/6/1
f 381/7/1 382/9/1 383/10/1 384/8/1
f 385/1/1 386/2/1 387/3/1 388/4/1
f 389/2/1 390/5/1 391/6/1 392/3/1
f 393/5/1 394/7/1 395/8/1 396/6/1
f 397/7/1 398/9/1 399/10/1 400/8/1
f 401/5/1 402/7/1 403/8/1 404/6/1
f 405/7/1 406/9/1 407/10/1 408/8/1
f 409/1/1 410/2/1 411/3/1 412/4/1
f 413/2/1 414/5/1 415/6/1 416/3/1
f 417/5/1 418/7/1 419/8/1 420/6/1
f 421/7/1 422/9/1 423/10/1 424/8/1
f 425/5/1 426/7/1 427/8/1 428/6/1
f 429/7/1 430/9/1 431/10/1 432/8/1
f 433/1/1 434/2/1 435/3/1 436/4/1
f 437/2/1 438/5/1 439/6/1 440/3/1
f 441/5/1 442/7/1 443/8/1 444/6/1
f 445/7/1 446/9/1 447/10/1 448/8/1
f 449/5/1 450/7/1 451/8/1 452/6/1
f 453/7/1 454/9/1 455/10/1 456/8/1
f 457/1/1 458/2/1 459/3/1 460/4/1
f 461/2/1 462/5/1 463/6/1 464/3/1
f 465/5/1 466/7/1 467/8/1 468/6/1
f 469/7/1 470/9/1 471/10/1 472/8/1
f 473/5/1 474/7/1 475/8/1 476/6/1
f 477/7/1 478/9/1 479/10/1 480/8/1
f 481/1/1 482/2/1 483/3/1 484/4/1
f 485/2/1 486/5/1 487/6/1 488/3/1
f 489/5/1 490/7/1 491/8/1 492/6/1
f 493/7/1 494/9/1 495/10/1 496/8/1
f 497/5/1 498/7/1 499/8/1 500/6/1
f 501/7/1 502/9/1 503/10/1 504/8/1
f 505/1/1 506/2/1 507/3/1 508/4/1
f 509/2/1 510/5/1 511/6/1 512/3/1
f 513/5/1 514/7/1 515/8/1 516/6/1
f 517/7/1 518/9/1 519/10/1 520/8/1
f 521/5/1 522/7/1 523/8/1 524/6/1
f 525/7/1 526/9/1 527/10/1 528/8/1
f 529/1/1 530/2/1 531/3/1 532/4/1
f 533/2/1 534/5/1 535/6/1 536/3/1
f 537/5/1 538/7/1 539/8/1 540/6/1
f 541/7/1 542/9/1 543/10/1 544/8/1
f 545/5/1 546/7/1 547/8/1 548/6/1
f 549/7/1 550/9/1 551/10/1 552/8/1
f 553/1/1 554/2/1 555/3/1 556/4/1
f 557/2/1 558/5/1 559/6/1 560/3/1
f 561/5/1 562/7/1 563/8/1 564/6/1
f 565/7/1 566/9/1 567/10/1 568/8/1
f 569/5/1 570/7/1 571/8/1 572/6/1
f 573/7/1 574/9/1 575/10/1 576/8/1
f 577/1/1 578/2/1 579/3/1 580/4/1
f 581/2/1 582/5/1 583/6/1 584/3/1
f 585/5/1 586/7/1 587/8/1 588/6/1
f 589/7/1 590/9/1 591/10/1 592/8/1
f 593/5/1 594/7/1 595/8/1 596/6/1
f 597/7/1 598/9/1 599/10/1 600/8/1
f 601/1/1 602/2/1 603/3/1 604/4/1
f 605/2/1 606/5/1 607/6/1 608/3/1
f 609/5/1 610/7/1 611/8/1 612/6/1
f 613/7/1 614/9/1 615/10/1 616/8/1
f 617/5/1 618/7/1 619/8/1 620/6/1
f 621/7/1 622/9/1 623/10/1 624/8/1
f 625/1/1 626/2/1 627/3/1 628/4/1
f 629/2/1 630/5/1 631/6/1 632/3/1
f 633/5/1 634/7/1 635/8/1 636/6/1
f 637/7/1 638/9/1 639/10/1 640/8/1
f 641/5/1 642/7/1 643/8/1 644/6/1
f 645/7/1 646/9/1 647/10/1 648/8/1
f 649/1/1 650/2/1 651/3/1 652/4/1
f 653/2/1 654/5/1 655/6/1 656/3/1
f 657/5/1 658/7/1 659/8/1 660/6/1
f 661/7/1 662/9/1 663/10/1 664/8/1
f 665/5/1 666/7/1 667/8/1 668/6/1
f 669/7/1 670/9/1 671/10/1 672/8/1
f 673/1/1 674/2/1 675/3/1 676/4/1
f 677/2/1 678/5/1 679/6/1 680/3/1
f 681/5/1 682/7/1 683/8/1 684/6/1
f 685/7/1 686/9/1 687/10/1 688/8/1
f 689/5/1 690/7/1 691/8/1 692/6/1
f 693/7/1 694/9/1 695/10/1 696/8/1
f 697/1/1 698/2/1 699/3/1 700/4/1
f 701/2/1 702/5/1 703/6/1 704/3/1
f 705/5/1 706/7/1 707/8/1 708/6/1
f 709/7/1 710/9/1 711/10/1 712/8/1
f 713/5/1 714/7/1 715/8/1 716/6/1
f 717/7/1 718/9/1 719/10/1 720/8/1
f 721/1/1 722/2/1 723/3/1 724/4/1
f 725/2/1 726/5/1 727/6/1 728/3/1
f 729/5/1 730/7/1 731/8/1 732/6/1
f 733/7/1 734/9/1 735/10/1 736/8/1
f 737/5/1 738/7/1 739/8/1 740/6/1
f 741/7/1 742/9/1 743/10/1 744/8/1
f 745/1/1 746/2/1 747/3/1 748/4/1
f 749/2/1 750/5/1 751/6/1 752/3/1
f 753/5/1 754/7/1 755/8/1 756/6/1
f 757/7/1 758/9/1 759/10/1 760/8/1
f 761/5/1 762/7/1 763/8/1 764/6/1
f 765/7/1 766/9/1 767/10/1 768/8/1
f 769/1/1 770/2/1 771/3/1 772/4/1
f 773/2/1 774/5/1 775/6/1 776/3/1
f 777/5/1 778/7/1 779/8/1 780/6/1
f 781/7/1 782/9/1 783/10/1 784/8/1
f 785/5/1 786/7/1 787/8/1 788/6/1
f 789/7/1 790/9/1 791/10/1 792/8/1
f 793/1/1 794/2/1 795/3/1 796/4/1
f 797/2/1 798/5/1 799/6/1 800/3/1
f 801/5/1 802/7/1 803/8/1 804/6/1
f 805/7/1 806/9/1 807/10/1 808/8/1
f 809/5/1 810/7/1 811/8/1 812/6/1
f 813/7/1 814/9/1 815/10/1 816/8/1
f 817/1/1 818/2/1 819/3/1 820/4/1
f 821/2/1 822/5/1 823/6/1 824/3/1
f 825/5/1 826/7/1 827/8/1 828/6/1
f 829/7/1 830/9/1 831/10/1 832/8/1
f 833/5/1 834/7/1 835/8/1 836/6/1
f 837/7/1 838/9/1 839/10/1 840/8/1
f 841/1/1 842/2/1 843/3/1 844/4/1
f 845/2/1 846/5/1 847/6/1 848/3/1
f 849/5/1 850/7/1 851/8/1 852/6/1
f 853/7/1 854/9/1 855/10/1 856/8/1
f 857/5/1 858/7/1 859/8/1 860/6/1
f 861/7/1 862/9/1 863/10/1 864/8/1
f 865/1/1 866/2/1 867/3/1 868/4/1
f 869/2/1 870/5/1 871/6/1 872/3/1
f 873/5/1 874/7/1 875/8/1 876/6/1
f 877/7/1 878/9/1 879/10/1 880/8/1
f 881/5/1 882/7/1 883/8/1 884/6/1
f 885/7/1 886/9/1 887/10/1 888/8/1
f 889/1/1 890/2/1 891/3/1 892/4/1
f 893/2/1 894/5/1 895/6/1 896/3/1
f 897/5/1 898/7/1 899/8/1 900/6/1
f 901/7/1 902/9/1 903/10/1 904/8/1
f 905/5/1 906/7/1 907/8/1 908/6/1
f 909/7/1 910/9/1 911/10/1 912/8/1
f 913/1/1 914/2/1 915/3/1 916/4/1
f 917/2/1 918/5/1 919/6/1 920/3/1
f 921/5/1 922/7/1 923/8/1 924/6/1
f 925/7/1 926/9/1 927/10/1 928/8/1
f 929/5/1 930/7/1 931/8/1 932/6/1
f 933/7/1 934/9/1 935/10/1 936/8/1
f 937/1/1 938/2/1 939/3/1 940/4/1
f 941/2/1 942/5/1 943/6/1 944/3/1
f 945/5/1 946/7/1 947/8/1 948/6/1
f 949/7/1 950/9/1 951/10/1 952/8/1
f 953/5/1 954/7/1 955/8/1 956/6/1
f 957/7/1 958/9/1 959/10/1 960/8/1
f 961/1/1 962/2/1 963/3/1 964/4/1
f 965/2/1 966/5/1 967/6/1 968/3/1
f 969/5/1 970/7/1 971/8/1 972/6/1
f 973/7/1 974/9/1 975/10/1 976/8/1
f 977/5/1 978/7/1 979/8/1 980/6/1
f 981/7/1 982/9/1 983/10/1 984/8/1
f 985/1/1 986/2/1 987/3/1 988/4/1
f 989/2/1 990/5/1 991/6/1 992/3/1
f 993/5/1 994/7/1 995/8/1 996/6/1
f 997/7/1 998/9/1 999/10/1 1000/8/1
f 1001/5/1 1002/7/1 1003/8/1 1004/6/1
f 1005/7/1 1006/9/1 1007/10/1 1008/8/1
f 1009/1/1 1010/2/1 1011/3/1 1012/4/1
f 1013/2/1 1014/5/1 1015/6/1 1016/3/1
f 1017/5/1 1018/7/1 1019/8/1 1020/6/1
f 1021/7/1 1022/9/1 1023/10/1 1024/8/1
f 1025/5/1 1026/7/1 1027/8/1 1028/6/1
f 1029/7/1 1030/9/1 1031/10/1 1032/8/1
f 1033/1/1 1034/2/1 1035/3/1 1036/4/1
f 1037/2/1 1038/5/1 1039/6/1 1040/3/1
f 1041/5/1 1042/7/1 1043/8/1 1044/6/1
f 1045/7/1 1046/9/1 1047/10/1 1048/8/1
f 1049/5/1 1050/7/1 1051/8/1 1052/6/1
f 1053/7/1 1054/9/1 1055/10/1 1056/8/1
f 1057/1/1 1058/2/1 1059/3/1 1060/4/1
f 1061/2/1 1062/5/1 1063/6/1 1064/3/1
f 1065/5/1 1066/7/1 1067/8/1 1068/6/1
f 1069/7/1 1070/9/1 1071/10/1 1072/8/1
f 1073/5/1 1074/7/1 1075/8/1 1076/6/1
f 1077/7/1 1078/9/1 1079/10/1 1080/8/1
f 1081/1/1 1082/2/1 1083/3/1 1084/4/1
f 1085/2/1 1086/5/1 1087/6/1 1088/3/1
f 1089/5/1 1090/7/1 1091/8/1 1092/6/1
f 1093/7/1 1094/9/1 1095/10/1 1096/8/1
f 1097/5/1 1098/7/1 1099/8/1 1100/6/1
f 1101/7/1 1102/9/1 1103/10/1 1104/8/1
f 1105/1/1 1106/2/1 1107/3/1 1108/4/1
f 1109/2/1 1110/5/1 1111/6/1 1112/3/1
f 1113/5/1 1114/7/1 1115/8/1 1116/6/1
f 1117/7/1 1118/9/1 1119/10/1 1120/8/1
f 1121/5/1 1122/7/1 1123/8/1 1124/6/1
f 1125/7/1 1126/9/1 1127/10/1 1128/8/1
f 1129/1/1 1130/2/1 1131/3/1 1132/4/1
f 1133/2/1 1134/5/1 1135/6/1 1136/3/1
f 1137/5/1 1138/7/1 1139/8/1 1140/6/1
f 1141/7/1 1142/9/1 1143/10/1 1144/8/1
f 1145/5/1 1146/7/1 1147/8/1 1148/6/1
f 1149/7/1 1150/9/1 1151/10/1 1152/8/1
f 1153/1/1 1154/2/1 1155/3/1 1156/4/1
f 1157/2/1 1158/5/1 1159/6/1 1160/3/1
f 1161/5/1 1162/7/1 1163/8/1 1164/6/1
f 1165/7/1 1166/9/1 1167/10/1 1168/8/1
f 1169/5/1 1170/7/1 1171/8/1 1172/6/1
f 1173/7/1 1174/9/1 1175/10/1 1176/8/1
f 1177/1/1 1178/2/1 1179/3/1 1180/4/1
f 1181/2/1 1182/5/1 1183/6/1 1184/3/1
f 1185/5/1 1186/7/1 1187/8/1 1188/6/1
f 1189/7/1 1190/9/1 1191/10/1 1192/8/1
f 1193/7/1 1194/9/1 1195/10/1 1196/8/1
f 1197/7/1 1198/9/1 1199/10/1 1200/8/1

