# Tiled2Unity generated file. Do not modify by hand.
# Wavefront file for 'Block1_mesh_0001.obj'

# Vertices (Count = 36)
v -18.5 -24 0
v -19 -24 0
v -19 -23.5 0
v -18.5 -23.5 0
v -19 -24 0
v -19.5 -24 0
v -19.5 -23.5 0
v -19 -23.5 0
v -19.5 -24 0
v -20 -24 0
v -20 -23.5 0
v -19.5 -23.5 0
v -18.5 -24.5 0
v -19 -24.5 0
v -19 -24 0
v -18.5 -24 0
v -19 -24.5 0
v -19.5 -24.5 0
v -19.5 -24 0
v -19 -24 0
v -19.5 -24.5 0
v -20 -24.5 0
v -20 -24 0
v -19.5 -24 0
v -18.5 -25 0
v -19 -25 0
v -19 -24.5 0
v -18.5 -24.5 0
v -19 -25 0
v -19.5 -25 0
v -19.5 -24.5 0
v -19 -24.5 0
v -19.5 -25 0
v -20 -25 0
v -20 -24.5 0
v -19.5 -24.5 0

# Texture cooridinates (Count = 16)
vt 0.34375 0.575
vt 0.359375 0.575
vt 0.359375 0.6
vt 0.34375 0.6
vt 0.375 0.575
vt 0.375 0.6
vt 0.390625 0.575
vt 0.390625 0.6
vt 0.34375 0.55
vt 0.359375 0.55
vt 0.375 0.55
vt 0.390625 0.55
vt 0.34375 0.525
vt 0.359375 0.525
vt 0.375 0.525
vt 0.390625 0.525

# Normal
vn 0 0 -1

# Mesh description
g Block1_mesh_0001

# Faces
f 1/1/1 2/2/1 3/3/1 4/4/1
f 5/2/1 6/5/1 7/6/1 8/3/1
f 9/5/1 10/7/1 11/8/1 12/6/1
f 13/9/1 14/10/1 15/2/1 16/1/1
f 17/10/1 18/11/1 19/5/1 20/2/1
f 21/11/1 22/12/1 23/7/1 24/5/1
f 25/13/1 26/14/1 27/10/1 28/9/1
f 29/14/1 30/15/1 31/11/1 32/10/1
f 33/15/1 34/16/1 35/12/1 36/11/1

