# Tiled2Unity generated file. Do not modify by hand.
# Wavefront file for 'RedPlatform1_mesh_0001.obj'

# Vertices (Count = 384)
v -17.75 -11 0
v -18 -11 0
v -18 -10.75 0
v -17.75 -10.75 0
v -18 -11 0
v -18.25 -11 0
v -18.25 -10.75 0
v -18 -10.75 0
v -18.25 -11 0
v -18.5 -11 0
v -18.5 -10.75 0
v -18.25 -10.75 0
v -18.5 -11 0
v -18.75 -11 0
v -18.75 -10.75 0
v -18.5 -10.75 0
v -18.75 -11 0
v -19 -11 0
v -19 -10.75 0
v -18.75 -10.75 0
v -19 -11 0
v -19.25 -11 0
v -19.25 -10.75 0
v -19 -10.75 0
v -19.25 -11 0
v -19.5 -11 0
v -19.5 -10.75 0
v -19.25 -10.75 0
v -19.5 -11 0
v -19.75 -11 0
v -19.75 -10.75 0
v -19.5 -10.75 0
v -19.75 -11 0
v -20 -11 0
v -20 -10.75 0
v -19.75 -10.75 0
v -20 -11 0
v -20.25 -11 0
v -20.25 -10.75 0
v -20 -10.75 0
v -20.25 -11 0
v -20.5 -11 0
v -20.5 -10.75 0
v -20.25 -10.75 0
v -20.5 -11 0
v -20.75 -11 0
v -20.75 -10.75 0
v -20.5 -10.75 0
v -20.75 -11 0
v -21 -11 0
v -21 -10.75 0
v -20.75 -10.75 0
v -21 -11 0
v -21.25 -11 0
v -21.25 -10.75 0
v -21 -10.75 0
v -17.75 -11.25 0
v -18 -11.25 0
v -18 -11 0
v -17.75 -11 0
v -18 -11.25 0
v -18.25 -11.25 0
v -18.25 -11 0
v -18 -11 0
v -18.25 -11.25 0
v -18.5 -11.25 0
v -18.5 -11 0
v -18.25 -11 0
v -18.5 -11.25 0
v -18.75 -11.25 0
v -18.75 -11 0
v -18.5 -11 0
v -18.75 -11.25 0
v -19 -11.25 0
v -19 -11 0
v -18.75 -11 0
v -19 -11.25 0
v -19.25 -11.25 0
v -19.25 -11 0
v -19 -11 0
v -19.25 -11.25 0
v -19.5 -11.25 0
v -19.5 -11 0
v -19.25 -11 0
v -19.5 -11.25 0
v -19.75 -11.25 0
v -19.75 -11 0
v -19.5 -11 0
v -19.75 -11.25 0
v -20 -11.25 0
v -20 -11 0
v -19.75 -11 0
v -20 -11.25 0
v -20.25 -11.25 0
v -20.25 -11 0
v -20 -11 0
v -20.25 -11.25 0
v -20.5 -11.25 0
v -20.5 -11 0
v -20.25 -11 0
v -20.5 -11.25 0
v -20.75 -11.25 0
v -20.75 -11 0
v -20.5 -11 0
v -20.75 -11.25 0
v -21 -11.25 0
v -21 -11 0
v -20.75 -11 0
v -21 -11.25 0
v -21.25 -11.25 0
v -21.25 -11 0
v -21 -11 0
v -18.25 -11.5 0
v -18.5 -11.5 0
v -18.5 -11.25 0
v -18.25 -11.25 0
v -18.5 -11.5 0
v -18.75 -11.5 0
v -18.75 -11.25 0
v -18.5 -11.25 0
v -18.75 -11.5 0
v -19 -11.5 0
v -19 -11.25 0
v -18.75 -11.25 0
v -19 -11.5 0
v -19.25 -11.5 0
v -19.25 -11.25 0
v -19 -11.25 0
v -19.25 -11.5 0
v -19.5 -11.5 0
v -19.5 -11.25 0
v -19.25 -11.25 0
v -19.5 -11.5 0
v -19.75 -11.5 0
v -19.75 -11.25 0
v -19.5 -11.25 0
v -19.75 -11.5 0
v -20 -11.5 0
v -20 -11.25 0
v -19.75 -11.25 0
v -20 -11.5 0
v -20.25 -11.5 0
v -20.25 -11.25 0
v -20 -11.25 0
v -20.25 -11.5 0
v -20.5 -11.5 0
v -20.5 -11.25 0
v -20.25 -11.25 0
v -20.5 -11.5 0
v -20.75 -11.5 0
v -20.75 -11.25 0
v -20.5 -11.25 0
v -18.25 -11.75 0
v -18.5 -11.75 0
v -18.5 -11.5 0
v -18.25 -11.5 0
v -18.5 -11.75 0
v -18.75 -11.75 0
v -18.75 -11.5 0
v -18.5 -11.5 0
v -18.75 -11.75 0
v -19 -11.75 0
v -19 -11.5 0
v -18.75 -11.5 0
v -19 -11.75 0
v -19.25 -11.75 0
v -19.25 -11.5 0
v -19 -11.5 0
v -19.25 -11.75 0
v -19.5 -11.75 0
v -19.5 -11.5 0
v -19.25 -11.5 0
v -19.5 -11.75 0
v -19.75 -11.75 0
v -19.75 -11.5 0
v -19.5 -11.5 0
v -19.75 -11.75 0
v -20 -11.75 0
v -20 -11.5 0
v -19.75 -11.5 0
v -20 -11.75 0
v -20.25 -11.75 0
v -20.25 -11.5 0
v -20 -11.5 0
v -20.25 -11.75 0
v -20.5 -11.75 0
v -20.5 -11.5 0
v -20.25 -11.5 0
v -20.5 -11.75 0
v -20.75 -11.75 0
v -20.75 -11.5 0
v -20.5 -11.5 0
v -18.25 -12 0
v -18.5 -12 0
v -18.5 -11.75 0
v -18.25 -11.75 0
v -18.5 -12 0
v -18.75 -12 0
v -18.75 -11.75 0
v -18.5 -11.75 0
v -18.75 -12 0
v -19 -12 0
v -19 -11.75 0
v -18.75 -11.75 0
v -19 -12 0
v -19.25 -12 0
v -19.25 -11.75 0
v -19 -11.75 0
v -19.25 -12 0
v -19.5 -12 0
v -19.5 -11.75 0
v -19.25 -11.75 0
v -19.5 -12 0
v -19.75 -12 0
v -19.75 -11.75 0
v -19.5 -11.75 0
v -19.75 -12 0
v -20 -12 0
v -20 -11.75 0
v -19.75 -11.75 0
v -20 -12 0
v -20.25 -12 0
v -20.25 -11.75 0
v -20 -11.75 0
v -20.25 -12 0
v -20.5 -12 0
v -20.5 -11.75 0
v -20.25 -11.75 0
v -20.5 -12 0
v -20.75 -12 0
v -20.75 -11.75 0
v -20.5 -11.75 0
v -18.25 -12.25 0
v -18.5 -12.25 0
v -18.5 -12 0
v -18.25 -12 0
v -18.5 -12.25 0
v -18.75 -12.25 0
v -18.75 -12 0
v -18.5 -12 0
v -18.75 -12.25 0
v -19 -12.25 0
v -19 -12 0
v -18.75 -12 0
v -19 -12.25 0
v -19.25 -12.25 0
v -19.25 -12 0
v -19 -12 0
v -19.25 -12.25 0
v -19.5 -12.25 0
v -19.5 -12 0
v -19.25 -12 0
v -19.5 -12.25 0
v -19.75 -12.25 0
v -19.75 -12 0
v -19.5 -12 0
v -19.75 -12.25 0
v -20 -12.25 0
v -20 -12 0
v -19.75 -12 0
v -20 -12.25 0
v -20.25 -12.25 0
v -20.25 -12 0
v -20 -12 0
v -20.25 -12.25 0
v -20.5 -12.25 0
v -20.5 -12 0
v -20.25 -12 0
v -20.5 -12.25 0
v -20.75 -12.25 0
v -20.75 -12 0
v -20.5 -12 0
v -17.75 -12.5 0
v -18 -12.5 0
v -18 -12.25 0
v -17.75 -12.25 0
v -18 -12.5 0
v -18.25 -12.5 0
v -18.25 -12.25 0
v -18 -12.25 0
v -18.25 -12.5 0
v -18.5 -12.5 0
v -18.5 -12.25 0
v -18.25 -12.25 0
v -18.5 -12.5 0
v -18.75 -12.5 0
v -18.75 -12.25 0
v -18.5 -12.25 0
v -18.75 -12.5 0
v -19 -12.5 0
v -19 -12.25 0
v -18.75 -12.25 0
v -19 -12.5 0
v -19.25 -12.5 0
v -19.25 -12.25 0
v -19 -12.25 0
v -19.25 -12.5 0
v -19.5 -12.5 0
v -19.5 -12.25 0
v -19.25 -12.25 0
v -19.5 -12.5 0
v -19.75 -12.5 0
v -19.75 -12.25 0
v -19.5 -12.25 0
v -19.75 -12.5 0
v -20 -12.5 0
v -20 -12.25 0
v -19.75 -12.25 0
v -20 -12.5 0
v -20.25 -12.5 0
v -20.25 -12.25 0
v -20 -12.25 0
v -20.25 -12.5 0
v -20.5 -12.5 0
v -20.5 -12.25 0
v -20.25 -12.25 0
v -20.5 -12.5 0
v -20.75 -12.5 0
v -20.75 -12.25 0
v -20.5 -12.25 0
v -20.75 -12.5 0
v -21 -12.5 0
v -21 -12.25 0
v -20.75 -12.25 0
v -21 -12.5 0
v -21.25 -12.5 0
v -21.25 -12.25 0
v -21 -12.25 0
v -18 -12.75 0
v -18.25 -12.75 0
v -18.25 -12.5 0
v -18 -12.5 0
v -18.25 -12.75 0
v -18.5 -12.75 0
v -18.5 -12.5 0
v -18.25 -12.5 0
v -18.5 -12.75 0
v -18.75 -12.75 0
v -18.75 -12.5 0
v -18.5 -12.5 0
v -18.75 -12.75 0
v -19 -12.75 0
v -19 -12.5 0
v -18.75 -12.5 0
v -19 -12.75 0
v -19.25 -12.75 0
v -19.25 -12.5 0
v -19 -12.5 0
v -19.25 -12.75 0
v -19.5 -12.75 0
v -19.5 -12.5 0
v -19.25 -12.5 0
v -19.5 -12.75 0
v -19.75 -12.75 0
v -19.75 -12.5 0
v -19.5 -12.5 0
v -19.75 -12.75 0
v -20 -12.75 0
v -20 -12.5 0
v -19.75 -12.5 0
v -20 -12.75 0
v -20.25 -12.75 0
v -20.25 -12.5 0
v -20 -12.5 0
v -20.25 -12.75 0
v -20.5 -12.75 0
v -20.5 -12.5 0
v -20.25 -12.5 0
v -20.5 -12.75 0
v -20.75 -12.75 0
v -20.75 -12.5 0
v -20.5 -12.5 0
v -20.75 -12.75 0
v -21 -12.75 0
v -21 -12.5 0
v -20.75 -12.5 0
v -19.25 -13 0
v -19.5 -13 0
v -19.5 -12.75 0
v -19.25 -12.75 0
v -19.5 -13 0
v -19.75 -13 0
v -19.75 -12.75 0
v -19.5 -12.75 0

# Texture cooridinates (Count = 109)
vt 0 0.875
vt 0.05442177 0.875
vt 0.05442177 1
vt 0 1
vt 0.1088435 0.875
vt 0.1088435 1
vt 0.1632653 0.875
vt 0.1632653 1
vt 0.2176871 0.875
vt 0.2176871 1
vt 0.2721089 0.875
vt 0.2721089 1
vt 0.3265306 0.875
vt 0.3265306 1
vt 0.3809524 0.875
vt 0.3809524 1
vt 0.4353741 0.875
vt 0.4353741 1
vt 0.4897959 0.875
vt 0.4897959 1
vt 0.5442177 0.875
vt 0.5442177 1
vt 0.5986394 0.875
vt 0.5986394 1
vt 0.6530612 0.875
vt 0.6530612 1
vt 0.707483 0.875
vt 0.707483 1
vt 0.7619048 0.875
vt 0.7619048 1
vt 0 0.75
vt 0.05442177 0.75
vt 0.1088435 0.75
vt 0.1632653 0.75
vt 0.2176871 0.75
vt 0.2721089 0.75
vt 0.3265306 0.75
vt 0.3809524 0.75
vt 0.4353741 0.75
vt 0.4897959 0.75
vt 0.5442177 0.75
vt 0.5986394 0.75
vt 0.6530612 0.75
vt 0.707483 0.75
vt 0.7619048 0.75
vt 0.1088435 0.625
vt 0.1632653 0.625
vt 0.2176871 0.625
vt 0.2721089 0.625
vt 0.3265306 0.625
vt 0.3809524 0.625
vt 0.4353741 0.625
vt 0.4897959 0.625
vt 0.5442177 0.625
vt 0.5986394 0.625
vt 0.6530612 0.625
vt 0.1088435 0.5
vt 0.1632653 0.5
vt 0.2176871 0.5
vt 0.2721089 0.5
vt 0.3265306 0.5
vt 0.3809524 0.5
vt 0.4353741 0.5
vt 0.4897959 0.5
vt 0.5442177 0.5
vt 0.5986394 0.5
vt 0.6530612 0.5
vt 0.1088435 0.375
vt 0.1632653 0.375
vt 0.2176871 0.375
vt 0.2721089 0.375
vt 0.3265306 0.375
vt 0.4897959 0.375
vt 0.5442177 0.375
vt 0.5986394 0.375
vt 0.6530612 0.375
vt 0.1088435 0.25
vt 0.1632653 0.25
vt 0.2176871 0.25
vt 0.2721089 0.25
vt 0.3265306 0.25
vt 0.3809524 0.25
vt 0.3809524 0.375
vt 0.4353741 0.25
vt 0.4353741 0.375
vt 0.4897959 0.25
vt 0.5442177 0.25
vt 0.5986394 0.25
vt 0.6530612 0.25
vt 0.8163266 0.5
vt 0.8163266 0.625
vt 0.8707483 0.625
vt 0.8707483 0.5
vt 0.1088435 0.125
vt 0.1632653 0.125
vt 0.2721089 0.125
vt 0.3265306 0.125
vt 0.3809524 0.125
vt 0.4353741 0.125
vt 0.1088435 0
vt 0.1632653 0
vt 0.2721089 0
vt 0.3265306 0
vt 0 0.125
vt 0.05442177 0.125
vt 0.05442177 0.25
vt 0 0.25
vt 0 0
vt 0.05442177 0

# Normal
vn 0 0 -1

# Mesh description
g RedPlatform1_mesh_0001

# Faces
f 1/1/1 2/2/1 3/3/1 4/4/1
f 5/2/1 6/5/1 7/6/1 8/3/1
f 9/5/1 10/7/1 11/8/1 12/6/1
f 13/7/1 14/9/1 15/10/1 16/8/1
f 17/9/1 18/11/1 19/12/1 20/10/1
f 21/11/1 22/13/1 23/14/1 24/12/1
f 25/13/1 26/15/1 27/16/1 28/14/1
f 29/15/1 30/17/1 31/18/1 32/16/1
f 33/17/1 34/19/1 35/20/1 36/18/1
f 37/19/1 38/21/1 39/22/1 40/20/1
f 41/21/1 42/23/1 43/24/1 44/22/1
f 45/23/1 46/25/1 47/26/1 48/24/1
f 49/25/1 50/27/1 51/28/1 52/26/1
f 53/27/1 54/29/1 55/30/1 56/28/1
f 57/31/1 58/32/1 59/2/1 60/1/1
f 61/32/1 62/33/1 63/5/1 64/2/1
f 65/33/1 66/34/1 67/7/1 68/5/1
f 69/34/1 70/35/1 71/9/1 72/7/1
f 73/35/1 74/36/1 75/11/1 76/9/1
f 77/36/1 78/37/1 79/13/1 80/11/1
f 81/37/1 82/38/1 83/15/1 84/13/1
f 85/38/1 86/39/1 87/17/1 88/15/1
f 89/39/1 90/40/1 91/19/1 92/17/1
f 93/40/1 94/41/1 95/21/1 96/19/1
f 97/41/1 98/42/1 99/23/1 100/21/1
f 101/42/1 102/43/1 103/25/1 104/23/1
f 105/43/1 106/44/1 107/27/1 108/25/1
f 109/44/1 110/45/1 111/29/1 112/27/1
f 113/46/1 114/47/1 115/34/1 116/33/1
f 117/47/1 118/48/1 119/35/1 120/34/1
f 121/48/1 122/49/1 123/36/1 124/35/1
f 125/49/1 126/50/1 127/37/1 128/36/1
f 129/50/1 130/51/1 131/38/1 132/37/1
f 133/51/1 134/52/1 135/39/1 136/38/1
f 137/52/1 138/53/1 139/40/1 140/39/1
f 141/53/1 142/54/1 143/41/1 144/40/1
f 145/54/1 146/55/1 147/42/1 148/41/1
f 149/55/1 150/56/1 151/43/1 152/42/1
f 153/57/1 154/58/1 155/47/1 156/46/1
f 157/58/1 158/59/1 159/48/1 160/47/1
f 161/59/1 162/60/1 163/49/1 164/48/1
f 165/60/1 166/61/1 167/50/1 168/49/1
f 169/61/1 170/62/1 171/51/1 172/50/1
f 173/62/1 174/63/1 175/52/1 176/51/1
f 177/63/1 178/64/1 179/53/1 180/52/1
f 181/64/1 182/65/1 183/54/1 184/53/1
f 185/65/1 186/66/1 187/55/1 188/54/1
f 189/66/1 190/67/1 191/56/1 192/55/1
f 193/68/1 194/69/1 195/58/1 196/57/1
f 197/69/1 198/70/1 199/59/1 200/58/1
f 201/70/1 202/71/1 203/60/1 204/59/1
f 205/71/1 206/72/1 207/61/1 208/60/1
f 209/71/1 210/72/1 211/61/1 212/60/1
f 213/71/1 214/72/1 215/61/1 216/60/1
f 217/71/1 218/72/1 219/61/1 220/60/1
f 221/73/1 222/74/1 223/65/1 224/64/1
f 225/74/1 226/75/1 227/66/1 228/65/1
f 229/75/1 230/76/1 231/67/1 232/66/1
f 233/77/1 234/78/1 235/69/1 236/68/1
f 237/78/1 238/79/1 239/70/1 240/69/1
f 241/79/1 242/80/1 243/71/1 244/70/1
f 245/80/1 246/81/1 247/72/1 248/71/1
f 249/81/1 250/82/1 251/83/1 252/72/1
f 253/82/1 254/84/1 255/85/1 256/83/1
f 257/84/1 258/86/1 259/73/1 260/85/1
f 261/86/1 262/87/1 263/74/1 264/73/1
f 265/87/1 266/88/1 267/75/1 268/74/1
f 269/88/1 270/89/1 271/76/1 272/75/1
f 273/90/1 274/91/1 275/92/1 276/93/1
f 277/78/1 278/77/1 279/68/1 280/69/1
f 281/78/1 282/77/1 283/68/1 284/69/1
f 285/79/1 286/78/1 287/69/1 288/70/1
f 289/94/1 290/95/1 291/78/1 292/77/1
f 293/96/1 294/97/1 295/81/1 296/80/1
f 297/97/1 298/98/1 299/82/1 300/81/1
f 301/98/1 302/99/1 303/84/1 304/82/1
f 305/94/1 306/95/1 307/78/1 308/77/1
f 309/94/1 310/95/1 311/78/1 312/77/1
f 313/80/1 314/81/1 315/72/1 316/71/1
f 317/77/1 318/78/1 319/69/1 320/68/1
f 321/57/1 322/58/1 323/47/1 324/46/1
f 325/93/1 326/92/1 327/91/1 328/90/1
f 329/90/1 330/93/1 331/92/1 332/91/1
f 333/90/1 334/93/1 335/92/1 336/91/1
f 337/90/1 338/93/1 339/92/1 340/91/1
f 341/100/1 342/101/1 343/95/1 344/94/1
f 345/102/1 346/103/1 347/97/1 348/96/1
f 349/104/1 350/105/1 351/106/1 352/107/1
f 353/105/1 354/94/1 355/77/1 356/106/1
f 357/100/1 358/101/1 359/95/1 360/94/1
f 361/100/1 362/101/1 363/95/1 364/94/1
f 365/90/1 366/93/1 367/92/1 368/91/1
f 369/90/1 370/93/1 371/92/1 372/91/1
f 373/90/1 374/93/1 375/92/1 376/91/1
f 377/108/1 378/109/1 379/105/1 380/104/1
f 381/109/1 382/100/1 383/94/1 384/105/1

