# Tiled2Unity generated file. Do not modify by hand.
# Wavefront file for 'Flat1_mesh_0001.obj'

# Vertices (Count = 180)
v -16.5 -25.5 0
v -17 -25.5 0
v -17 -25 0
v -16.5 -25 0
v -17 -25.5 0
v -17.5 -25.5 0
v -17.5 -25 0
v -17 -25 0
v -17.5 -25.5 0
v -18 -25.5 0
v -18 -25 0
v -17.5 -25 0
v -18 -25.5 0
v -18.5 -25.5 0
v -18.5 -25 0
v -18 -25 0
v -18.5 -25.5 0
v -19 -25.5 0
v -19 -25 0
v -18.5 -25 0
v -19 -25.5 0
v -19.5 -25.5 0
v -19.5 -25 0
v -19 -25 0
v -19.5 -25.5 0
v -20 -25.5 0
v -20 -25 0
v -19.5 -25 0
v -20 -25.5 0
v -20.5 -25.5 0
v -20.5 -25 0
v -20 -25 0
v -20.5 -25.5 0
v -21 -25.5 0
v -21 -25 0
v -20.5 -25 0
v -21 -25.5 0
v -21.5 -25.5 0
v -21.5 -25 0
v -21 -25 0
v -21.5 -25.5 0
v -22 -25.5 0
v -22 -25 0
v -21.5 -25 0
v -22 -25.5 0
v -22.5 -25.5 0
v -22.5 -25 0
v -22 -25 0
v -22.5 -25.5 0
v -23 -25.5 0
v -23 -25 0
v -22.5 -25 0
v -23 -25.5 0
v -23.5 -25.5 0
v -23.5 -25 0
v -23 -25 0
v -23.5 -25.5 0
v -24 -25.5 0
v -24 -25 0
v -23.5 -25 0
v -16.5 -26 0
v -17 -26 0
v -17 -25.5 0
v -16.5 -25.5 0
v -17 -26 0
v -17.5 -26 0
v -17.5 -25.5 0
v -17 -25.5 0
v -17.5 -26 0
v -18 -26 0
v -18 -25.5 0
v -17.5 -25.5 0
v -18 -26 0
v -18.5 -26 0
v -18.5 -25.5 0
v -18 -25.5 0
v -18.5 -26 0
v -19 -26 0
v -19 -25.5 0
v -18.5 -25.5 0
v -19 -26 0
v -19.5 -26 0
v -19.5 -25.5 0
v -19 -25.5 0
v -19.5 -26 0
v -20 -26 0
v -20 -25.5 0
v -19.5 -25.5 0
v -20 -26 0
v -20.5 -26 0
v -20.5 -25.5 0
v -20 -25.5 0
v -20.5 -26 0
v -21 -26 0
v -21 -25.5 0
v -20.5 -25.5 0
v -21 -26 0
v -21.5 -26 0
v -21.5 -25.5 0
v -21 -25.5 0
v -21.5 -26 0
v -22 -26 0
v -22 -25.5 0
v -21.5 -25.5 0
v -22 -26 0
v -22.5 -26 0
v -22.5 -25.5 0
v -22 -25.5 0
v -22.5 -26 0
v -23 -26 0
v -23 -25.5 0
v -22.5 -25.5 0
v -23 -26 0
v -23.5 -26 0
v -23.5 -25.5 0
v -23 -25.5 0
v -23.5 -26 0
v -24 -26 0
v -24 -25.5 0
v -23.5 -25.5 0
v -16.5 -26.5 0
v -17 -26.5 0
v -17 -26 0
v -16.5 -26 0
v -17 -26.5 0
v -17.5 -26.5 0
v -17.5 -26 0
v -17 -26 0
v -17.5 -26.5 0
v -18 -26.5 0
v -18 -26 0
v -17.5 -26 0
v -18 -26.5 0
v -18.5 -26.5 0
v -18.5 -26 0
v -18 -26 0
v -18.5 -26.5 0
v -19 -26.5 0
v -19 -26 0
v -18.5 -26 0
v -19 -26.5 0
v -19.5 -26.5 0
v -19.5 -26 0
v -19 -26 0
v -19.5 -26.5 0
v -20 -26.5 0
v -20 -26 0
v -19.5 -26 0
v -20 -26.5 0
v -20.5 -26.5 0
v -20.5 -26 0
v -20 -26 0
v -20.5 -26.5 0
v -21 -26.5 0
v -21 -26 0
v -20.5 -26 0
v -21 -26.5 0
v -21.5 -26.5 0
v -21.5 -26 0
v -21 -26 0
v -21.5 -26.5 0
v -22 -26.5 0
v -22 -26 0
v -21.5 -26 0
v -22 -26.5 0
v -22.5 -26.5 0
v -22.5 -26 0
v -22 -26 0
v -22.5 -26.5 0
v -23 -26.5 0
v -23 -26 0
v -22.5 -26 0
v -23 -26.5 0
v -23.5 -26.5 0
v -23.5 -26 0
v -23 -26 0
v -23.5 -26.5 0
v -24 -26.5 0
v -24 -26 0
v -23.5 -26 0

# Texture cooridinates (Count = 26)
vt 0.34375 0.575
vt 0.359375 0.575
vt 0.359375 0.6
vt 0.34375 0.6
vt 0.375 0.575
vt 0.375 0.6
vt 0.390625 0.575
vt 0.390625 0.6
vt 0.34375 0.55
vt 0.359375 0.55
vt 0.546875 0.525
vt 0.5625 0.525
vt 0.5625 0.55
vt 0.546875 0.55
vt 0.546875 0.625
vt 0.5625 0.625
vt 0.5625 0.65
vt 0.546875 0.65
vt 0.546875 0.6
vt 0.5625 0.6
vt 0.375 0.55
vt 0.390625 0.55
vt 0.34375 0.525
vt 0.359375 0.525
vt 0.375 0.525
vt 0.390625 0.525

# Normal
vn 0 0 -1

# Mesh description
g Flat1_mesh_0001

# Faces
f 1/1/1 2/2/1 3/3/1 4/4/1
f 5/2/1 6/5/1 7/6/1 8/3/1
f 9/2/1 10/5/1 11/6/1 12/3/1
f 13/2/1 14/5/1 15/6/1 16/3/1
f 17/2/1 18/5/1 19/6/1 20/3/1
f 21/2/1 22/5/1 23/6/1 24/3/1
f 25/2/1 26/5/1 27/6/1 28/3/1
f 29/2/1 30/5/1 31/6/1 32/3/1
f 33/2/1 34/5/1 35/6/1 36/3/1
f 37/2/1 38/5/1 39/6/1 40/3/1
f 41/2/1 42/5/1 43/6/1 44/3/1
f 45/2/1 46/5/1 47/6/1 48/3/1
f 49/2/1 50/5/1 51/6/1 52/3/1
f 53/2/1 54/5/1 55/6/1 56/3/1
f 57/5/1 58/7/1 59/8/1 60/6/1
f 61/9/1 62/10/1 63/2/1 64/1/1
f 65/11/1 66/12/1 67/13/1 68/14/1
f 69/15/1 70/16/1 71/17/1 72/18/1
f 73/15/1 74/16/1 75/17/1 76/18/1
f 77/19/1 78/20/1 79/16/1 80/15/1
f 81/15/1 82/16/1 83/17/1 84/18/1
f 85/15/1 86/16/1 87/17/1 88/18/1
f 89/11/1 90/12/1 91/13/1 92/14/1
f 93/15/1 94/16/1 95/17/1 96/18/1
f 97/11/1 98/12/1 99/13/1 100/14/1
f 101/11/1 102/12/1 103/13/1 104/14/1
f 105/15/1 106/16/1 107/17/1 108/18/1
f 109/15/1 110/16/1 111/17/1 112/18/1
f 113/11/1 114/12/1 115/13/1 116/14/1
f 117/21/1 118/22/1 119/7/1 120/5/1
f 121/23/1 122/24/1 123/10/1 124/9/1
f 125/24/1 126/25/1 127/21/1 128/10/1
f 129/24/1 130/25/1 131/21/1 132/10/1
f 133/24/1 134/25/1 135/21/1 136/10/1
f 137/24/1 138/25/1 139/21/1 140/10/1
f 141/24/1 142/25/1 143/21/1 144/10/1
f 145/24/1 146/25/1 147/21/1 148/10/1
f 149/24/1 150/25/1 151/21/1 152/10/1
f 153/24/1 154/25/1 155/21/1 156/10/1
f 157/24/1 158/25/1 159/21/1 160/10/1
f 161/24/1 162/25/1 163/21/1 164/10/1
f 165/24/1 166/25/1 167/21/1 168/10/1
f 169/24/1 170/25/1 171/21/1 172/10/1
f 173/24/1 174/25/1 175/21/1 176/10/1
f 177/25/1 178/26/1 179/22/1 180/21/1

